<?xml version="1.0" encoding="UTF-8"?>
<svg version="1.1" xmlns="http://www.w3.org/2000/svg" width="1024" height="1024">
<path d="M0 0 C337.92 0 675.84 0 1024 0 C1024 337.92 1024 675.84 1024 1024 C686.08 1024 348.16 1024 0 1024 C0 686.08 0 348.16 0 0 Z " fill="#0D0B0B" transform="translate(0,0)"/>
<path d="M0 0 C3.42537546 1.18779207 6.10057343 2.84803475 9 5 C10.010625 5.66 11.02125 6.32 12.0625 7 C20.36602761 14.38853834 25.22456186 26.99888739 29.97363281 36.86914062 C31.04308165 39.08944258 32.12708484 41.30232377 33.2109375 43.515625 C33.93333682 45.00991185 34.65471883 46.50469101 35.375 48 C35.70886719 48.6815918 36.04273438 49.36318359 36.38671875 50.06542969 C41.44190404 60.70108186 43.00219925 72.18199939 39.09765625 83.49609375 C35.57899482 91.52264882 30.86589796 97.6928761 24.11328125 103.24609375 C19.89881811 106.74386446 16.52745964 109.72419804 15.62890625 115.3046875 C14.89162096 143.84196523 43.63638717 173.49530685 61.97265625 192.84375 C62.98109034 193.89648562 63.99021619 194.94855897 65 196 C65.52062012 196.54785156 66.04124023 197.09570312 66.57763672 197.66015625 C84.54954287 216.87905678 84.54954287 216.87905678 108.3125 225.3125 C109.23675781 225.34988281 110.16101563 225.38726562 111.11328125 225.42578125 C117.91545659 224.4224834 122.66900626 218.67758199 127.41210938 214.06640625 C135.69740197 206.22632597 144.11436619 203.56693736 155.4609375 203.74609375 C171.66874417 204.90890549 182.96928183 215.30025862 194.69018555 225.44628906 C198.37595439 228.63328075 202.12270517 231.71705446 205.9375 234.75 C214.0513394 241.37012817 220.84282172 248.46031724 222.30859375 259.27734375 C222.83124741 270.06301464 218.27561218 277.87821243 211.25 285.8125 C208.75689984 288.10955519 206.98548409 289.74110164 203.6953125 290.60546875 C200.89944716 290.47838396 198.66454293 289.872493 196 289 C194.80375 288.61714844 193.6075 288.23429687 192.375 287.83984375 C177.3748194 282.72187224 163.67690656 275.48833177 151 266 C150.45166504 265.59442871 149.90333008 265.18885742 149.33837891 264.77099609 C126.38493453 247.70644347 126.38493453 247.70644347 119.47607422 237.8190918 C118.07781917 235.67079356 118.07781917 235.67079356 115.08203125 235.609375 C114.00308594 235.65578125 112.92414063 235.7021875 111.8125 235.75 C110.72582031 235.78609375 109.63914062 235.8221875 108.51953125 235.859375 C107.68808594 235.90578125 106.85664063 235.9521875 106 236 C120.15720897 256.93330898 140.38252846 274.71467776 163 286 C163.69738281 286.34933594 164.39476562 286.69867188 165.11328125 287.05859375 C175.24331313 292.04377581 184.79452866 295.41338459 196 297 C196 297.66 196 298.32 196 299 C193.43873936 300.294174 190.87606642 301.58540784 188.3125 302.875 C187.59126953 303.23980469 186.87003906 303.60460937 186.12695312 303.98046875 C170.36402903 311.89791921 151.75029289 312.47984309 134.84375 307.31640625 C92.95025458 293.33402292 58.08735605 265.07208433 27.1875 234.3125 C26.48206055 233.6117334 25.77662109 232.9109668 25.04980469 232.18896484 C20.49680182 227.62199571 16.17902775 222.91061542 12 218 C11.18390259 217.04395874 11.18390259 217.04395874 10.35131836 216.06860352 C-18.10953811 182.48233607 -42.45414132 143.84275479 -54 101 C-54.42732422 99.41638672 -54.42732422 99.41638672 -54.86328125 97.80078125 C-60.54303629 75.91622746 -60.18116666 51.99462014 -48.82421875 31.921875 C-47.75 30.25 -47.75 30.25 -46 28 C-45.67 28 -45.34 28 -45 28 C-44.84144531 29.10214844 -44.68289063 30.20429688 -44.51953125 31.33984375 C-40.25118423 59.6621375 -29.43761042 93.25504385 -8.24609375 113.69140625 C-7 115 -7 115 -7 117 C-6.42765625 117.28617187 -5.8553125 117.57234375 -5.265625 117.8671875 C-1.84375 119.578125 1.578125 121.2890625 5 123 C5.60284095 116.9155123 4.27328979 112.85127097 0.45166016 108.05175781 C-0.53085627 106.87458879 -1.51428131 105.69817765 -2.49853516 104.52246094 C-14.60159471 90.01433112 -23.30357091 71.91402281 -29 54 C-29.22316895 53.30165039 -29.44633789 52.60330078 -29.67626953 51.88378906 C-34.70715329 35.99053153 -34.70715329 35.99053153 -35 28 C-35.11988281 26.96230469 -35.23976563 25.92460937 -35.36328125 24.85546875 C-36.00634132 16.45729616 -36.00634132 16.45729616 -33.34375 12.6015625 C-31.01068933 10.45744688 -28.66115324 8.71939417 -26 7 C-25.09121094 6.4121875 -24.18242187 5.824375 -23.24609375 5.21875 C-15.1840051 0.24302134 -9.62770019 -0.92434231 0 0 Z " fill="#FBDC3E" transform="translate(355,204)"/>
<path d="M0 0 C15.84484099 -0.33915379 31.21277039 -0.21676569 46.75537109 3.078125 C47.79274414 3.2949292 47.79274414 3.2949292 48.85107422 3.51611328 C53.53929481 4.52696887 58.15249551 5.73312889 62.75537109 7.078125 C63.4743457 7.28808105 64.19332031 7.49803711 64.93408203 7.71435547 C76.1541019 11.06575837 86.51097882 15.41531743 96.75537109 21.078125 C97.39071777 21.42746094 98.02606445 21.77679688 98.68066406 22.13671875 C111.24047983 29.13254574 122.93945503 37.50713847 132.75537109 48.078125 C133.58037109 48.903125 134.40537109 49.728125 135.25537109 50.578125 C136.08037109 51.403125 136.90537109 52.228125 137.75537109 53.078125 C138.24263672 53.51898438 138.72990234 53.95984375 139.23193359 54.4140625 C164.67265389 78.16677292 180.77414779 116.70045594 182.04804993 151.11022949 C182.47865891 166.58671146 182.20622261 181.92471546 178.75537109 197.078125 C178.50013672 198.31046875 178.24490234 199.5428125 177.98193359 200.8125 C168.45845259 241.52756559 139.75336702 278.34357489 104.66503906 300.39160156 C87.57661012 310.71431179 68.75348989 319.24685105 49.13037109 323.203125 C48.32341797 323.37199219 47.51646484 323.54085938 46.68505859 323.71484375 C40.42913518 325.00462017 34.23220913 326.23930712 27.81787109 326.140625 C27.04572266 326.13160156 26.27357422 326.12257813 25.47802734 326.11328125 C24.6253125 326.09587891 24.6253125 326.09587891 23.75537109 326.078125 C24.06335435 324.59801129 24.37688909 323.11905175 24.69287109 321.640625 C24.86689453 320.81691406 25.04091797 319.99320312 25.22021484 319.14453125 C25.75537109 317.078125 25.75537109 317.078125 26.75537109 316.078125 C28.75495473 316.03731717 30.75582363 316.03558144 32.75537109 316.078125 C31.64235992 298.8072619 27.41442978 287.21351759 14.75537109 275.078125 C14.09537109 274.748125 13.43537109 274.418125 12.75537109 274.078125 C12.75537109 273.418125 12.75537109 272.758125 12.75537109 272.078125 C16.32025588 273.46399866 19.77286379 274.99645907 23.22021484 276.65234375 C24.26177734 277.15209717 25.30333984 277.65185059 26.37646484 278.16674805 C27.47087891 278.69437744 28.56529297 279.22200684 29.69287109 279.765625 C31.36736328 280.57157104 31.36736328 280.57157104 33.07568359 281.39379883 C56.24238732 292.56514122 56.24238732 292.56514122 57.75537109 294.078125 C57.82856731 296.77467354 57.84779647 299.44503958 57.81787109 302.140625 C57.81335938 302.89923828 57.80884766 303.65785156 57.80419922 304.43945312 C57.79237789 306.31904371 57.77444187 308.19859399 57.75537109 310.078125 C60.72537109 309.418125 63.69537109 308.758125 66.75537109 308.078125 C66.66255859 307.05332031 66.56974609 306.02851563 66.47412109 304.97265625 C66.3990557 303.61209602 66.32625846 302.25140931 66.25537109 300.890625 C66.18833984 300.21708984 66.12130859 299.54355469 66.05224609 298.84960938 C65.97412109 296.84765625 65.97412109 296.84765625 66.75537109 293.078125 C69.10787041 290.81606125 71.84946869 289.51917408 74.75537109 288.078125 C76.37118333 287.1763954 77.98440352 286.27000793 79.59521484 285.359375 C81.29313035 284.42990699 82.99236632 283.50284732 84.69287109 282.578125 C86.38958712 281.65122734 88.08620234 280.72414512 89.78271484 279.796875 C90.60715088 279.34957031 91.43158691 278.90226562 92.28100586 278.44140625 C93.9514002 277.52108242 95.6106947 276.58036086 97.2590332 275.62109375 C98.04930908 275.16347656 98.83958496 274.70585937 99.65380859 274.234375 C100.35554199 273.81994141 101.05727539 273.40550781 101.78027344 272.97851562 C105.05541595 271.48547167 107.39635044 272.06408103 110.75537109 273.078125 C111.80724609 273.635 112.85912109 274.191875 113.94287109 274.765625 C116.60964837 276.3811582 116.60964837 276.3811582 119.00537109 275.453125 C121.02213635 274.01549033 121.02213635 274.01549033 122.75537109 271.078125 C121.47883667 270.75630249 121.47883667 270.75630249 120.17651367 270.42797852 C116.28328456 268.93154615 113.18143606 267.5146046 110.75537109 264.078125 C108.67584623 257.16068775 109.16086886 249.66312559 109.35571289 242.51733398 C109.44277224 239.01959674 109.41753739 235.53546784 109.37841797 232.03710938 C109.39712956 229.80982971 109.42230219 227.58259298 109.45458984 225.35546875 C109.44137947 223.79432594 109.44137947 223.79432594 109.42790222 222.2016449 C109.70265338 215.14024559 109.70265338 215.14024559 112.66186523 212.15460205 C114.96261363 210.59726713 117.26755562 209.31042421 119.75537109 208.078125 C120.69203613 207.51077637 121.62870117 206.94342773 122.59375 206.35888672 C123.38185059 205.91303223 124.16995117 205.46717773 124.98193359 205.0078125 C126.31224609 204.25177734 126.31224609 204.25177734 127.66943359 203.48046875 C128.56404297 202.97644531 129.45865234 202.47242188 130.38037109 201.953125 C131.28271484 201.44136719 132.18505859 200.92960938 133.11474609 200.40234375 C134.86299631 199.41098904 136.61300227 198.42272233 138.36499023 197.43798828 C139.87449325 196.57924742 141.37514553 195.70458003 142.86254883 194.80810547 C147.47041291 192.04013058 147.47041291 192.04013058 150.56787109 192.453125 C154.32706045 194.36957448 157.91357376 196.49395433 161.48583984 198.73828125 C163.79251611 200.20716066 163.79251611 200.20716066 166.75537109 201.078125 C167.08537109 198.438125 167.41537109 195.798125 167.75537109 193.078125 C167.02804276 192.80850952 166.30071442 192.53889404 165.55134583 192.2611084 C160.9111299 190.29782227 157.09657138 187.88638972 153.75537109 184.078125 C152.46707633 180.34740832 152.46656197 176.84343925 152.52490234 172.921875 C152.51392014 171.86077515 152.50293793 170.79967529 152.49162292 169.7064209 C152.4811517 167.47077775 152.493425 165.23492576 152.52709961 162.99951172 C152.56778577 159.5852852 152.50713279 156.18307405 152.43701172 152.76953125 C152.43936474 150.59113066 152.44763039 148.41272677 152.46240234 146.234375 C152.43902298 145.22064819 152.41564362 144.20692139 152.39155579 143.16247559 C152.52420879 138.67149018 152.71481179 136.10459456 155.99789429 132.8659668 C159.13227541 130.64497667 162.32405451 128.79378329 165.75537109 127.078125 C165.75537109 124.438125 165.75537109 121.798125 165.75537109 119.078125 C164.82595703 119.66722656 163.89654297 120.25632812 162.93896484 120.86328125 C161.69087542 121.62339586 160.44214279 122.38245505 159.19287109 123.140625 C158.27924805 123.72553711 158.27924805 123.72553711 157.34716797 124.32226562 C154.21573306 126.1944992 152.19750922 127.06010018 148.49755859 127.2109375 C143.01547299 125.55143351 138.36230054 122.7860971 133.44287109 119.890625 C132.46125 119.32537109 131.47962891 118.76011719 130.46826172 118.17773438 C127.55413267 116.49405823 124.65309611 114.78985504 121.75537109 113.078125 C120.80227051 112.51915527 119.84916992 111.96018555 118.8671875 111.38427734 C117.9704834 110.85398926 117.0737793 110.32370117 116.14990234 109.77734375 C115.35044189 109.30514404 114.55098145 108.83294434 113.72729492 108.34643555 C111.75537109 107.078125 111.75537109 107.078125 109.75537109 105.078125 C109.4475708 103.06245422 109.4475708 103.06245422 109.36962891 100.5559082 C109.32144012 99.14853142 109.32144012 99.14853142 109.27227783 97.71272278 C109.18328226 93.40982931 109.10121356 89.10755445 109.05517578 84.80395508 C109.02209717 82.53693519 108.96756594 80.27012223 108.89111328 78.00415039 C108.25672795 59.10360478 108.25672795 59.10360478 112.03466797 53.99755859 C114.58538217 52.21052858 116.79164642 51.0058793 119.75537109 50.078125 C117.64539269 47.82222251 117.64539269 47.82222251 114.75537109 46.078125 C111.73932402 46.69410522 111.73932402 46.69410522 108.75537109 48.078125 C104.03377247 49.49861317 101.38415222 48.83110999 97.0456543 46.54963684 C96.35173584 46.16329575 95.65781738 45.77695465 94.94287109 45.37890625 C94.21092529 44.98744919 93.47897949 44.59599213 92.72485352 44.19267273 C90.39318313 42.94040054 88.07465929 41.66565537 85.75537109 40.390625 C84.19624317 39.55130634 82.63635385 38.7134004 81.07568359 37.87695312 C63.10034975 28.18339644 63.10034975 28.18339644 61.95068359 24.5 C61.92748047 23.61828125 61.90427734 22.7365625 61.88037109 21.828125 C61.84169922 20.93609375 61.80302734 20.0440625 61.76318359 19.125 C61.76060547 18.44953125 61.75802734 17.7740625 61.75537109 17.078125 C59.44537109 16.418125 57.13537109 15.758125 54.75537109 15.078125 C54.85978516 15.80257812 54.96419922 16.52703125 55.07177734 17.2734375 C55.71186466 24.89352457 55.71186466 24.89352457 53.31396484 27.86328125 C50.87958221 29.52161781 48.40996078 30.7975537 45.75537109 32.078125 C44.59134766 32.67882812 43.42732422 33.27953125 42.22802734 33.8984375 C39.55888161 35.26871232 36.87359646 36.59842091 34.17333984 37.90625 C31.05863773 39.41972707 27.98890465 40.99959228 24.93115234 42.625 C24.13056396 43.04418701 23.32997559 43.46337402 22.50512695 43.89526367 C20.95390897 44.70874809 19.40877656 45.53397394 17.87084961 46.37231445 C14.73508722 47.99651501 12.46965591 49.06342778 8.90771484 49.13671875 C4.05835063 47.50824576 -0.46942598 45.33007791 -5.05712891 43.078125 C-6.06727051 42.58844238 -7.07741211 42.09875977 -8.11816406 41.59423828 C-32.74374572 29.57900818 -32.74374572 29.57900818 -35.24462891 27.078125 C-35.31706944 25.05848301 -35.32840079 23.03645376 -35.30712891 21.015625 C-35.29810547 19.91089844 -35.28908203 18.80617187 -35.27978516 17.66796875 C-35.26818359 16.81332031 -35.25658203 15.95867187 -35.24462891 15.078125 C-39.69962891 15.573125 -39.69962891 15.573125 -44.24462891 16.078125 C-44.12861328 16.80257812 -44.01259766 17.52703125 -43.89306641 18.2734375 C-43.80283203 19.24023438 -43.71259766 20.20703125 -43.61962891 21.203125 C-43.50361328 22.15445313 -43.38759766 23.10578125 -43.26806641 24.0859375 C-44.94744592 29.23155633 -49.63412066 30.69382538 -54.24462891 33.078125 C-55.38673828 33.69268555 -56.52884766 34.30724609 -57.70556641 34.94042969 C-60.82752468 36.61674232 -63.96668529 38.25735837 -67.11450195 39.88452148 C-69.07495499 40.89985728 -71.02990158 41.92531053 -72.98486328 42.95117188 C-74.24430787 43.60478565 -75.50406244 44.25780253 -76.76416016 44.91015625 C-77.88927002 45.49514893 -79.01437988 46.0801416 -80.17358398 46.68286133 C-82.96934686 47.95305648 -85.19574973 48.80042143 -88.24462891 49.078125 C-90.25275817 48.09455148 -92.25317499 47.09503764 -94.24462891 46.078125 C-96.49470175 45.97266131 -96.49470175 45.97266131 -98.24462891 47.078125 C-99.52899625 49.0619017 -99.52899625 49.0619017 -100.24462891 51.078125 C-97.76962891 53.553125 -97.76962891 53.553125 -95.24462891 56.078125 C-95.96650391 55.76875 -96.68837891 55.459375 -97.43212891 55.140625 C-101.2444561 53.66926238 -101.2444561 53.66926238 -105.24462891 53.078125 C-107.57917551 54.91170835 -107.57917551 54.91170835 -109.24462891 57.078125 C-112.21462891 56.088125 -115.18462891 55.098125 -118.24462891 54.078125 C-107.20033355 31.9895343 -72.46041121 16.11259268 -50.16723633 8.52539062 C-33.73537272 3.23564618 -17.24055263 0.41512241 0 0 Z " fill="#FBFAFB" transform="translate(558.24462890625,154.921875)"/>
<path d="M0 0 C12.89011219 10.00918035 21.71762495 22.53568767 24 39 C25.36367866 56.04493584 22.95146267 72.31618045 12 86 C2.0278635 97.68058446 -11.66683106 105.24885814 -27 107 C-45.33151386 108.40357299 -62.49500172 104.0972759 -76.6875 92.14453125 C-87.93241146 81.71639546 -94.07622541 67.33410143 -95.2109375 52.18359375 C-95.77535305 35.88066757 -90.94624625 21.21907369 -80.6875 8.5625 C-60.15999772 -12.84940714 -24.63677054 -17.41627372 0 0 Z " fill="#F9D93D" transform="translate(664,575)"/>
<path d="M0 0 C1.61073908 1.42459235 3.13573302 2.94432677 4.65625 4.46484375 C4.98625 0.50484375 5.31625 -3.45515625 5.65625 -7.53515625 C10.13545597 -7.56197784 14.61450351 -7.58190802 19.09375 -7.59765625 C20.37314453 -7.60603516 21.65253906 -7.61441406 22.97070312 -7.62304688 C24.79311523 -7.62788086 24.79311523 -7.62788086 26.65234375 -7.6328125 C27.77825928 -7.63804932 28.9041748 -7.64328613 30.06420898 -7.64868164 C32.65625 -7.53515625 32.65625 -7.53515625 33.65625 -6.53515625 C33.7515322 -3.55217411 33.78177175 -0.5923928 33.76977539 2.39086914 C33.76992142 3.32735794 33.77006744 4.26384674 33.7702179 5.22871399 C33.76951837 8.33999914 33.76172415 11.45122524 33.75390625 14.5625 C33.75204221 16.71341418 33.75061824 18.86432878 33.74961853 21.01524353 C33.74579225 26.68866133 33.73596102 32.3620537 33.72491455 38.03546143 C33.7147028 43.81986141 33.71012142 49.60426548 33.70507812 55.38867188 C33.69433885 66.74740882 33.67674116 78.1061202 33.65625 89.46484375 C24.41625 89.46484375 15.17625 89.46484375 5.65625 89.46484375 C5.32625 85.17484375 4.99625 80.88484375 4.65625 76.46484375 C3.7075 77.68171875 2.75875 78.89859375 1.78125 80.15234375 C-4.53203772 87.35841964 -13.50702764 90.98668013 -22.96875 91.6484375 C-36.47551153 91.96734715 -47.59869565 87.66613677 -57.56640625 78.37109375 C-70.2223638 64.79723159 -71.1074851 48.75494108 -70.52294922 31.10253906 C-70.17667918 26.00567049 -68.80966071 21.8958956 -66.34375 17.46484375 C-65.87324219 16.58828125 -65.40273438 15.71171875 -64.91796875 14.80859375 C-60.59298748 7.20914345 -56.29986639 1.43046986 -48.53125 -2.78515625 C-47.90524902 -3.12869141 -47.27924805 -3.47222656 -46.63427734 -3.82617188 C-31.60485316 -11.86580154 -13.4529154 -10.74523116 0 0 Z " fill="#F9F9FA" transform="translate(708.34375,732.53515625)"/>
<path d="M0 0 C2.40092203 0.98663955 2.40092203 0.98663955 5.08203125 1.390625 C8.47223434 2.14082197 9.30819293 4.16029911 11.39453125 6.90234375 C12.65142881 7.9607838 13.92391224 9.00084854 15.20703125 10.02734375 C23.88551128 17.52606765 29.47121904 28.4212734 30.58544922 39.86279297 C31.50124684 55.70495186 28.87207189 71.99707023 18.08203125 84.27734375 C16.54287902 85.84232068 14.98040727 87.38473392 13.39453125 88.90234375 C12.25757813 90.05089844 12.25757813 90.05089844 11.09765625 91.22265625 C7.11764199 95.05170445 3.97081564 97.64299257 -1.53515625 98.5390625 C-3.87477202 98.94959885 -5.93515887 99.72043721 -8.16796875 100.52734375 C-20.0614131 104.11920059 -31.99643724 102.26000902 -42.91796875 96.83984375 C-43.51222656 96.51886719 -44.10648437 96.19789063 -44.71875 95.8671875 C-46.63779705 94.82439458 -46.63779705 94.82439458 -48.9609375 94.12890625 C-52.47600761 92.49857831 -54.92848336 90.07047868 -57.60546875 87.33984375 C-58.40319702 86.52966797 -58.40319702 86.52966797 -59.21704102 85.703125 C-63.27536111 81.46857435 -66.26593359 77.3074767 -68.60546875 71.90234375 C-69.05535156 70.90847656 -69.50523437 69.91460938 -69.96875 68.890625 C-75.53995314 56.13178514 -77.00702767 41.98419945 -71.94140625 28.78125 C-69.53064337 23.58612648 -66.69244899 18.7213853 -63.60546875 13.90234375 C-63.15945313 13.19851563 -62.7134375 12.4946875 -62.25390625 11.76953125 C-59.49240253 7.6539999 -56.68776072 4.65164242 -52.60546875 1.90234375 C-49.48046875 1.77734375 -49.48046875 1.77734375 -46.60546875 1.90234375 C-45.24008222 0.94657318 -43.9106535 -0.06118601 -42.60546875 -1.09765625 C-28.40585551 -7.61601319 -13.93053113 -5.96379766 0 0 Z " fill="#DBC539" transform="translate(376.60546875,575.09765625)"/>
<path d="M0 0 C8.91 0 17.82 0 27 0 C27 15.18 27 30.36 27 46 C42.84 46 58.68 46 75 46 C75 30.82 75 15.64 75 0 C83.58 0 92.16 0 101 0 C101 37.62 101 75.24 101 114 C92.42 114 83.84 114 75 114 C75 98.49 75 82.98 75 67 C58.83 67 42.66 67 26 67 C26 82.51 26 98.02 26 114 C17.42 114 8.84 114 0 114 C0 76.38 0 38.76 0 0 Z " fill="#FBDB3D" transform="translate(188,566)"/>
<path d="M0 0 C3.52129986 1.5049194 6.91048336 3.24456648 10.3125 5 C11.75834473 5.73561157 11.75834473 5.73561157 13.23339844 6.48608398 C16.16096073 7.98055186 19.08140183 9.48811131 22 11 C22.8751123 11.45133301 23.75022461 11.90266602 24.65185547 12.36767578 C27.02150757 13.59252818 29.38701874 14.824834 31.75 16.0625 C32.81214722 16.61647461 32.81214722 16.61647461 33.89575195 17.18164062 C36.57927607 18.60431212 38.83932316 19.83932316 41 22 C41.30107117 24.0223999 41.30107117 24.0223999 41.36987305 26.53808594 C41.39877121 27.47956482 41.42766937 28.4210437 41.45744324 29.39105225 C41.47535416 30.41184875 41.49326508 31.43264526 41.51171875 32.484375 C41.53023392 33.53272522 41.54874908 34.58107544 41.56782532 35.66119385 C41.59990979 37.88374807 41.62553843 40.1064033 41.64526367 42.32910156 C41.67333688 44.6028693 41.72107442 46.87648234 41.78881836 49.14941406 C41.88631816 52.42864953 41.9243037 55.70387817 41.94921875 58.984375 C41.98939621 59.99707458 42.02957367 61.00977417 42.07096863 62.05316162 C42.02934104 68.9297346 42.02934104 68.9297346 39.20806885 71.86317444 C36.87547617 73.45540767 34.52890883 74.7457592 32 76 C30.6852274 76.74997113 29.37181417 77.50233265 28.06005859 78.25756836 C26.75942693 78.95771643 25.45546196 79.65170342 24.1484375 80.33984375 C23.44530426 80.7110585 22.74217102 81.08227325 22.01773071 81.46473694 C20.54886836 82.23639711 19.07842553 83.00505602 17.60644531 83.77075195 C15.36390032 84.94330365 13.13554338 86.14037875 10.90625 87.33789062 C9.46695409 88.09009025 8.02687594 88.84079541 6.5859375 89.58984375 C5.59972916 90.12713356 5.59972916 90.12713356 4.59359741 90.67527771 C-0.0243367 93.02455322 -3.00404072 93.27186034 -8 92 C-10.28491211 91.09545898 -10.28491211 91.09545898 -12.27734375 89.99609375 C-13.03088135 89.58866943 -13.78441895 89.18124512 -14.56079102 88.76147461 C-15.34510498 88.32456299 -16.12941895 87.88765137 -16.9375 87.4375 C-18.61118809 86.52978985 -20.28568255 85.62356512 -21.9609375 84.71875 C-22.79850586 84.26371094 -23.63607422 83.80867188 -24.49902344 83.33984375 C-28.31540129 81.29530239 -32.18345464 79.35979938 -36.0625 77.4375 C-36.73466553 77.10355225 -37.40683105 76.76960449 -38.09936523 76.42553711 C-39.73212273 75.61543574 -41.36596822 74.80752796 -43 74 C-43.66 73.67 -44.32 73.34 -45 73 C-44.9278125 72.319375 -44.855625 71.63875 -44.78125 70.9375 C-43.14611054 53.85937677 -44.56281843 37.88461828 -47 21 C-34.63226546 12.92311214 -21.22251684 6.53789057 -8 0 C-4.95504136 -1.52247932 -3.31989287 -0.82536737 0 0 Z " fill="#FCFCFC" transform="translate(572,269)"/>
<path d="M0 0 C2.63342891 1.24207926 5.18683588 2.52202465 7.75 3.89453125 C8.85359863 4.477472 8.85359863 4.477472 9.97949219 5.07218933 C11.53095378 5.89371894 13.08072872 6.71844076 14.62890625 7.54614258 C16.98761134 8.80588344 19.35265416 10.05303536 21.71875 11.29882812 C23.2295629 12.1008165 24.73999258 12.90352732 26.25 13.70703125 C26.9522168 14.07697708 27.65443359 14.44692291 28.37792969 14.82807922 C30.27626038 15.84798007 32.13843191 16.91486054 34 18 C34.96244629 18.5266626 35.92489258 19.0533252 36.91650391 19.59594727 C40.29909985 23.49897308 39.95061513 27.74385387 40.0859375 32.7578125 C40.11918121 33.81604218 40.15242493 34.87427185 40.18667603 35.96456909 C40.24265081 38.20523037 40.28372703 40.44630603 40.31103516 42.6875 C40.37451453 46.09891084 40.55505184 49.49165453 40.73828125 52.8984375 C41.1846627 68.28564417 41.1846627 68.28564417 37.41848755 72.96496582 C33.41209452 76.29623789 28.90818093 78.31784267 24.07507324 80.1786499 C21.40530347 81.23539124 19.00256295 82.61947219 16.54296875 84.09375 C15.09239006 84.89808134 13.64063918 85.70030383 12.1875 86.5 C11.43919922 86.91507812 10.69089844 87.33015625 9.91992188 87.7578125 C7.9507697 88.84690648 5.98248243 89.93536767 4 91 C3.36618408 91.39251953 2.73236816 91.78503906 2.0793457 92.18945312 C-1.49460715 93.58261075 -4.17127982 92.34272495 -7.59277344 90.92773438 C-8.50575195 90.48751953 -9.41873047 90.04730469 -10.359375 89.59375 C-11.38546875 89.10116699 -12.4115625 88.60858398 -13.46875 88.10107422 C-15.09296875 87.30854248 -15.09296875 87.30854248 -16.75 86.5 C-17.85859375 85.96262207 -18.9671875 85.42524414 -20.109375 84.87158203 C-26.78102685 81.61973089 -33.42328434 78.31512819 -40 74.875 C-41.05719238 74.32682617 -41.05719238 74.32682617 -42.13574219 73.76757812 C-46.87812122 71.24375755 -46.87812122 71.24375755 -48 69 C-48.1195377 67.54645922 -48.17971715 66.08779769 -48.20874023 64.62963867 C-48.22803085 63.7249736 -48.24732147 62.82030853 -48.26719666 61.88822937 C-48.32488572 57.74901258 -48.37420944 53.60997037 -48.4050293 49.47045898 C-48.4266249 47.28703002 -48.46074595 45.10368798 -48.50756836 42.9206543 C-48.57446762 39.77353233 -48.60201145 36.62820084 -48.62109375 33.48046875 C-48.64892441 32.50635544 -48.67675507 31.53224213 -48.70542908 30.52861023 C-48.69077347 25.69999937 -48.66159438 23.73319656 -45.32910156 20.04003906 C-42.29369126 18.17997097 -39.31440683 16.43521565 -36.11328125 14.87890625 C-35.00919922 14.33556641 -33.90511719 13.79222656 -32.76757812 13.23242188 C-31.62740234 12.68134766 -30.48722656 12.13027344 -29.3125 11.5625 C-27.0576146 10.46163875 -24.80369831 9.35879013 -22.55078125 8.25390625 C-21.45459473 7.72039551 -20.3584082 7.18688477 -19.22900391 6.63720703 C-15.19169079 4.59016168 -11.30011959 2.32473529 -7.42651367 -0.01586914 C-4.32779977 -1.27262694 -3.1632625 -1.06665131 0 0 Z " fill="#FCFCFC" transform="translate(621,348)"/>
<path d="M0 0 C1.03721191 0.54309814 2.07442383 1.08619629 3.14306641 1.64575195 C4.29806641 2.24709961 5.45306641 2.84844727 6.64306641 3.46801758 C7.23571289 3.78343506 7.82835937 4.09885254 8.43896484 4.42382812 C10.22757862 5.37496631 12.02413784 6.30939568 13.82275391 7.24145508 C29.80735788 15.63426217 29.80735788 15.63426217 34.86962891 20.6965332 C35.17070007 22.68096924 35.17070007 22.68096924 35.23950195 25.14282227 C35.26840012 26.0642804 35.29729828 26.98573853 35.32707214 27.93511963 C35.34498306 28.93404236 35.36289398 29.93296509 35.38134766 30.9621582 C35.39986282 31.98831238 35.41837799 33.01446655 35.43745422 34.07171631 C35.4695376 36.24719032 35.49516669 38.42276751 35.51489258 40.59838867 C35.54296405 42.82366103 35.59069932 45.0487754 35.65844727 47.27319336 C35.75596549 50.48294968 35.79393453 53.6886126 35.81884766 56.8996582 C35.85902512 57.89048401 35.89920258 58.88130981 35.94059753 59.90216064 C35.89882276 66.65823772 35.89882276 66.65823772 32.9906311 69.59214783 C30.68131699 71.15785865 28.36639176 72.4553648 25.86962891 73.6965332 C24.91314453 74.25864502 23.95666016 74.82075684 22.97119141 75.39990234 C22.15392578 75.83939209 21.33666016 76.27888184 20.49462891 76.73168945 C19.57166016 77.23120117 18.64869141 77.73071289 17.69775391 78.24536133 C16.76447266 78.74487305 15.83119141 79.24438477 14.86962891 79.7590332 C12.99445755 80.77043433 11.11945562 81.78214962 9.24462891 82.79418945 C8.34228516 83.2751709 7.43994141 83.75615234 6.51025391 84.25170898 C4.77110152 85.20329033 3.05106743 86.19081596 1.35400391 87.21557617 C0.57541016 87.68237793 -0.20318359 88.14917969 -1.00537109 88.63012695 C-2.02244141 89.26325806 -2.02244141 89.26325806 -3.06005859 89.90917969 C-6.47858647 91.20926841 -8.79637046 90.29071427 -12.06137085 88.83644104 C-14.42192826 87.69381414 -16.75179597 86.50215236 -19.07958984 85.29418945 C-19.93341751 84.85642685 -20.78724518 84.41866425 -21.66694641 83.96763611 C-23.46625583 83.04339668 -25.26401196 82.11612783 -27.06030273 81.18603516 C-29.81480067 79.76062211 -32.57466227 78.3460482 -35.33544922 76.93286133 C-37.08382361 76.03310684 -38.83188163 75.13273726 -40.57958984 74.23168945 C-41.40665939 73.80767349 -42.23372894 73.38365753 -43.08586121 72.9467926 C-43.85038101 72.54975632 -44.61490082 72.15272003 -45.40258789 71.74365234 C-46.07589645 71.39581192 -46.74920502 71.0479715 -47.44291687 70.68959045 C-49.13037109 69.6965332 -49.13037109 69.6965332 -51.13037109 67.6965332 C-51.43144226 65.6741333 -51.43144226 65.6741333 -51.50024414 63.15844727 C-51.5291423 62.21696838 -51.55804047 61.2754895 -51.58781433 60.30548096 C-51.60572525 59.28468445 -51.62363617 58.26388794 -51.64208984 57.2121582 C-51.66060501 56.16380798 -51.67912018 55.11545776 -51.69819641 54.03533936 C-51.73028088 51.81278514 -51.75590952 49.59012991 -51.77563477 47.36743164 C-51.80370798 45.0936639 -51.85144551 42.82005086 -51.91918945 40.54711914 C-52.01668926 37.26788367 -52.0546748 33.99265503 -52.07958984 30.7121582 C-52.1197673 29.69945862 -52.15994476 28.68675903 -52.20133972 27.64337158 C-52.15971107 20.76662261 -52.15971107 20.76662261 -49.33074951 17.82566833 C-47.00034039 16.23298739 -44.66061337 14.94442908 -42.13037109 13.6965332 C-40.84724536 12.97533993 -39.56449895 12.25347115 -38.28222656 11.53076172 C-37.02412516 10.87234403 -35.76247583 10.22066605 -34.49755859 9.57543945 C-33.8166214 9.22642075 -33.1356842 8.87740204 -32.43411255 8.51780701 C-31.01242003 7.79295362 -29.58905548 7.07137062 -28.1640625 6.35302734 C-25.99399206 5.25326647 -23.83803378 4.12853515 -21.68115234 3.00317383 C-20.28741737 2.29652301 -18.89291164 1.59138985 -17.49755859 0.88793945 C-16.54416092 0.38346031 -16.54416092 0.38346031 -15.57150269 -0.13121033 C-9.80620247 -2.97138958 -5.80782022 -2.41833974 0 0 Z " fill="#FCFCFC" transform="translate(624.13037109375,192.303466796875)"/>
<path d="M0 0 C8.91 0 17.82 0 27 0 C27 32.01 27 64.02 27 97 C18.09 97 9.18 97 0 97 C-0.33 93.04 -0.66 89.08 -1 85 C-2.2375 86.381875 -3.475 87.76375 -4.75 89.1875 C-11.86530348 96.22510126 -19.1815526 99.24341912 -29.1875 99.4375 C-40.9932344 98.93209534 -50.4395692 96.15765683 -58.8125 87.3125 C-64.99395286 79.72816423 -68.13172724 71.07889243 -68.11352539 61.39550781 C-68.11367142 60.74143448 -68.11381744 60.08736115 -68.1139679 59.41346741 C-68.11327341 57.25998574 -68.10550283 55.10659148 -68.09765625 52.953125 C-68.09579042 51.45668586 -68.09436729 49.96024612 -68.09336853 48.46380615 C-68.08955635 44.53141585 -68.07973717 40.59906268 -68.06866455 36.66668701 C-68.05842249 32.65149437 -68.05386492 28.6362957 -68.04882812 24.62109375 C-68.03811372 16.74737693 -68.02052745 8.87369736 -68 1 C-59.09 1 -50.18 1 -41 1 C-40.96261719 5.08246094 -40.92523438 9.16492188 -40.88671875 13.37109375 C-40.84855263 16.64751577 -40.80748038 19.923873 -40.7644577 23.20023346 C-40.7199872 26.64705644 -40.6805143 30.09376321 -40.65356445 33.54077148 C-40.62233033 37.50529653 -40.56754896 41.46933596 -40.51171875 45.43359375 C-40.50532883 46.65582138 -40.4989389 47.87804901 -40.49235535 49.13731384 C-40.30963053 60.74867881 -40.30963053 60.74867881 -34.625 70.4375 C-28.44651167 74.11517163 -23.10119665 74.79676821 -16 74 C-10.05755715 72.23630701 -6.48384817 69.02084002 -3 64 C-1.18848367 60.22776699 -0.7347169 57.18546554 -0.68115234 53.01635742 C-0.66128265 51.83551071 -0.64141296 50.654664 -0.62094116 49.43803406 C-0.60938995 48.17328751 -0.59783875 46.90854095 -0.5859375 45.60546875 C-0.56657135 44.30297684 -0.5472052 43.00048492 -0.5272522 41.65852356 C-0.47605482 38.2079265 -0.43636324 34.75729056 -0.39910889 31.30651855 C-0.35899112 27.78042112 -0.30803952 24.25448116 -0.2578125 20.72851562 C-0.16018125 13.81907105 -0.0805678 6.90974897 0 0 Z " fill="#FCFBFC" transform="translate(432,725)"/>
<path d="M0 0 C3.8050261 1.31008153 7.27162437 3.2685093 10.81982422 5.15014648 C11.65441162 5.59100586 12.48899902 6.03186523 13.34887695 6.48608398 C33.77583769 17.41865996 33.77583769 17.41865996 39.06982422 22.71264648 C39.37089539 24.73504639 39.37089539 24.73504639 39.43969727 27.25073242 C39.46859543 28.1922113 39.49749359 29.13369019 39.52726746 30.10369873 C39.54517838 31.12449524 39.56308929 32.14529175 39.58154297 33.19702148 C39.60005814 34.2453717 39.6185733 35.29372192 39.63764954 36.37384033 C39.669734 38.59639455 39.69536265 40.81904978 39.71508789 43.04174805 C39.7431611 45.31551579 39.79089864 47.58912883 39.85864258 49.86206055 C39.95614238 53.14129601 39.99412792 56.41652466 40.01904297 59.69702148 C40.05922043 60.70972107 40.09939789 61.72242065 40.14079285 62.76580811 C40.0989643 69.67557756 40.0989643 69.67557756 37.16651917 72.63061523 C34.86399481 74.18623631 32.55729157 75.47853179 30.06982422 76.71264648 C28.77927124 77.50251953 28.77927124 77.50251953 27.46264648 78.30834961 C26.7774292 78.69958008 26.09221191 79.09081055 25.38623047 79.49389648 C24.60844238 79.94087891 23.8306543 80.38786133 23.02929688 80.84838867 C22.2382959 81.29859375 21.44729492 81.74879883 20.63232422 82.21264648 C14.67006181 85.61469095 8.78001225 89.05488183 3.07763672 92.88452148 C0.35590262 94.00710442 -1.10457688 93.45935442 -3.93017578 92.71264648 C-6.17163086 91.64038086 -6.17163086 91.64038086 -8.44970703 90.30639648 C-9.72539551 89.56740112 -9.72539551 89.56740112 -11.02685547 88.81347656 C-11.92307617 88.28520264 -12.81929687 87.75692871 -13.74267578 87.21264648 C-15.61865802 86.12225227 -17.49496391 85.0324147 -19.37158203 83.94311523 C-20.30373535 83.39961426 -21.23588867 82.85611328 -22.19628906 82.29614258 C-26.83960407 79.60668543 -31.52832245 76.99892771 -36.21850586 74.39233398 C-40.824616 71.81820627 -40.824616 71.81820627 -41.93017578 70.71264648 C-42.04924396 69.23059822 -42.10024363 67.74299633 -42.12304688 66.25634766 C-42.1391098 65.30833786 -42.15517273 64.36032806 -42.17172241 63.3835907 C-42.21601944 59.03877326 -42.2572429 54.6941114 -42.28027344 50.34912109 C-42.29683696 48.05507261 -42.32413194 45.76107582 -42.36230469 43.46728516 C-42.41697582 40.16728827 -42.43893364 36.86850356 -42.45361328 33.56811523 C-42.47628265 32.54195602 -42.49895203 31.51579681 -42.52230835 30.45854187 C-42.50120852 23.37007861 -42.50120852 23.37007861 -39.79541016 20.25488281 C-38.37711914 19.49147583 -38.37711914 19.49147583 -36.93017578 18.71264648 C-35.43188232 17.83769531 -35.43188232 17.83769531 -33.90332031 16.94506836 C-32.80101074 16.36305664 -31.69870117 15.78104492 -30.56298828 15.18139648 C-29.96517548 14.86360229 -29.36736267 14.54580811 -28.75143433 14.21838379 C-26.85524426 13.21154188 -24.95541117 12.21182902 -23.05517578 11.21264648 C-21.16657901 10.21399477 -19.27877834 9.21386383 -17.39154053 8.21264648 C-15.60832489 7.2679154 -13.82250449 6.32810606 -12.03662109 5.38842773 C-9.56488069 4.05503995 -7.18134216 2.66137057 -4.79736328 1.18139648 C-1.93017578 -0.28735352 -1.93017578 -0.28735352 0 0 Z " fill="#FCFCFC" transform="translate(663.93017578125,268.287353515625)"/>
<path d="M0 0 C26.07 0 52.14 0 79 0 C79 7.26 79 14.52 79 22 C62.17 22 45.34 22 28 22 C28 31.57 28 41.14 28 51 C41.86 51 55.72 51 70 51 C70 57.93 70 64.86 70 72 C56.14 72 42.28 72 28 72 C28 88.83 28 105.66 28 123 C18.76 123 9.52 123 0 123 C0 82.41 0 41.82 0 0 Z " fill="#FBFBFB" transform="translate(270,699)"/>
<path d="M0 0 C5.49216942 4.3671215 9.93684972 8.94273612 12.7734375 15.41015625 C12.7734375 18.05015625 12.7734375 20.69015625 12.7734375 23.41015625 C4.1934375 23.41015625 -4.3865625 23.41015625 -13.2265625 23.41015625 C-14.2165625 21.43015625 -15.2065625 19.45015625 -16.2265625 17.41015625 C-20.84228014 12.91279034 -25.20315469 12.96868468 -31.32421875 12.9765625 C-34.90847304 13.51202983 -37.64215836 14.82575211 -40.2265625 17.41015625 C-40.72726571 20.78372959 -40.72726571 20.78372959 -40.2265625 24.41015625 C-36.73860874 27.87684934 -33.53715403 29.16846098 -28.81640625 30.33984375 C-26.95918945 30.82130859 -26.95918945 30.82130859 -25.06445312 31.3125 C-23.76471585 31.63829037 -22.46458232 31.96250386 -21.1640625 32.28515625 C5.1431455 38.82495322 5.1431455 38.82495322 11.7734375 49.41015625 C15.30353503 55.76433181 15.78784641 61.17741431 14.1171875 68.1484375 C11.6878332 75.71922697 8.16386563 81.72101902 1.2734375 85.94140625 C-1.19654945 87.20580433 -3.66403255 88.3472419 -6.2265625 89.41015625 C-7.02835938 89.76335937 -7.83015625 90.1165625 -8.65625 90.48046875 C-21.09363973 94.97909908 -36.8822887 93.6440234 -49.0234375 88.953125 C-57.50173687 84.86906616 -63.27336618 78.56372458 -69.2265625 71.41015625 C-67.73475868 67.57045664 -65.60642728 65.98736216 -62.2265625 63.72265625 C-61.3396875 63.12066406 -60.4528125 62.51867187 -59.5390625 61.8984375 C-55.74627193 59.45746925 -53.6234951 59.29955058 -49.1015625 59.34765625 C-48.00585938 59.35667969 -46.91015625 59.36570312 -45.78125 59.375 C-44.93820312 59.38660156 -44.09515625 59.39820313 -43.2265625 59.41015625 C-42.640625 61.10286458 -42.0546875 62.79557292 -41.46875 64.48828125 C-39.54026243 67.471979 -37.34107178 68.74231659 -34.2265625 70.41015625 C-30.51808523 71.03833159 -30.51808523 71.03833159 -26.6640625 70.91015625 C-25.38402344 70.92046875 -24.10398437 70.93078125 -22.78515625 70.94140625 C-18.71504857 70.33379413 -17.03779504 69.37492126 -14.2265625 66.41015625 C-13.39322917 62.91015625 -13.39322917 62.91015625 -14.2265625 59.41015625 C-17.68966346 56.0304277 -20.80927439 54.67078988 -25.453125 53.48046875 C-27.24943359 52.99900391 -27.24943359 52.99900391 -29.08203125 52.5078125 C-31.57118816 51.86553263 -34.06076437 51.2248753 -36.55078125 50.5859375 C-49.33304744 47.15454839 -59.34561168 42.870471 -66.1015625 31.16015625 C-68.52443032 23.08393018 -67.89349845 15.01234054 -64.2265625 7.41015625 C-59.37649418 -0.08540388 -50.9361373 -4.85959258 -42.37890625 -7.1171875 C-27.88544594 -9.29030856 -12.40142436 -8.55541301 0 0 Z " fill="#FAFAFA" transform="translate(613.2265625,731.58984375)"/>
<path d="M0 0 C0.58832611 0.27290359 1.17665222 0.54580719 1.7828064 0.82698059 C3.02618057 1.40523704 4.26831836 1.98615857 5.50927734 2.56958008 C7.36897295 3.44319 9.23287918 4.30722153 11.09765625 5.16992188 C32.35541984 15.05787093 32.35541984 15.05787093 35.7734375 19.26953125 C36.13420105 21.41459656 36.13420105 21.41459656 36.11401367 23.92456055 C36.11378708 24.8653093 36.11356049 25.80605804 36.11332703 26.77531433 C36.09784317 27.7878981 36.08235931 28.80048187 36.06640625 29.84375 C36.06216141 30.88271927 36.05791656 31.92168854 36.05354309 32.99214172 C36.03673599 36.31403401 35.99907946 39.635322 35.9609375 42.95703125 C35.94589332 45.20767354 35.93220445 47.45832532 35.91992188 49.70898438 C35.88682586 55.22937322 35.83660619 60.74940907 35.7734375 66.26953125 C25.8814123 71.81949876 15.99089628 77.33554232 5.8359375 82.39453125 C4.89298828 82.8740625 3.95003906 83.35359375 2.97851562 83.84765625 C2.07681641 84.29882812 1.17511719 84.75 0.24609375 85.21484375 C-0.54531006 85.61203613 -1.33671387 86.00922852 -2.15209961 86.41845703 C-4.2265625 87.26953125 -4.2265625 87.26953125 -7.2265625 87.26953125 C-7.68804688 86.20476562 -8.14953125 85.14 -8.625 84.04296875 C-18.07353939 62.79422066 -32.7236862 44.27144878 -52.2265625 31.26953125 C-52.6953125 28.37109375 -52.6953125 28.37109375 -52.7265625 24.89453125 C-52.7575 23.75242188 -52.7884375 22.6103125 -52.8203125 21.43359375 C-52.03266083 17.23623943 -50.69980397 16.69230532 -47.2265625 14.26953125 C-44.5476437 12.71236108 -41.80525799 11.30135406 -39.0390625 9.90625 C-38.25893799 9.51000931 -37.47881348 9.11376862 -36.67504883 8.70552063 C-35.03270814 7.87460623 -33.38871066 7.04695932 -31.74316406 6.22241211 C-29.22748603 4.95749561 -26.72325804 3.67162721 -24.21875 2.38476562 C-22.61784624 1.57811839 -21.01630455 0.77273572 -19.4140625 -0.03125 C-18.29511597 -0.61076164 -18.29511597 -0.61076164 -17.15356445 -1.20198059 C-10.28524357 -4.59150009 -6.85959003 -3.19269112 0 0 Z " fill="#FCFCFC" transform="translate(528.2265625,193.73046875)"/>
<path d="M0 0 C9.24 0 18.48 0 28 0 C28 7.92 28 15.84 28 24 C34.93 24 41.86 24 49 24 C49 31.59 49 39.18 49 47 C42.07 47 35.14 47 28 47 C28.09677425 53.7996647 28.19940403 60.59869633 28.31738281 67.39794922 C28.35573401 69.71234669 28.3905759 72.02680502 28.421875 74.34130859 C28.4673924 77.66265664 28.52540843 80.98358341 28.5859375 84.3046875 C28.59748871 85.34430634 28.60903992 86.38392517 28.62094116 87.45504761 C28.64081085 88.41589264 28.66068054 89.37673767 28.68115234 90.36669922 C28.69447601 91.21497284 28.70779968 92.06324646 28.7215271 92.93722534 C28.81776158 95.22186119 28.81776158 95.22186119 31 97 C32.93257855 97.36831081 32.93257855 97.36831081 35.1328125 97.4140625 C35.85871582 97.44967285 36.58461914 97.4852832 37.33251953 97.52197266 C38.71479736 97.57297119 38.71479736 97.57297119 40.125 97.625 C44.518125 97.810625 44.518125 97.810625 49 98 C49 105.59 49 113.18 49 121 C44.99770712 121.06922608 40.99695796 121.12884797 36.99438477 121.16479492 C35.63558883 121.17979409 34.27684059 121.20020038 32.91821289 121.22631836 C19.02077708 121.4866082 19.02077708 121.4866082 13 118 C11.948125 117.401875 10.89625 116.80375 9.8125 116.1875 C3.72081819 111.44952526 1.59606811 105.31127341 0 98 C-0.36992458 93.94704495 -0.3521567 89.9341985 -0.29296875 85.8671875 C-0.28872391 84.74933868 -0.28447906 83.63148987 -0.28010559 82.47976685 C-0.26344759 78.94458906 -0.22581916 75.41000257 -0.1875 71.875 C-0.17243654 69.46354996 -0.15875106 67.05209089 -0.14648438 64.640625 C-0.11358624 58.76019232 -0.06189346 52.88019607 0 47 C-4.29 47 -8.58 47 -13 47 C-13 39.41 -13 31.82 -13 24 C-8.71 24 -4.42 24 0 24 C0 16.08 0 8.16 0 0 Z " fill="#F8F8F9" transform="translate(485,701)"/>
<path d="M0 0 C8.58 0 17.16 0 26 0 C26 31.02 26 62.04 26 94 C38.87 94 51.74 94 65 94 C65 100.6 65 107.2 65 114 C43.55 114 22.1 114 0 114 C0 76.38 0 38.76 0 0 Z " fill="#FADA3F" transform="translate(497,566)"/>
<path d="M0 0 C8.58 0 17.16 0 26 0 C26 31.02 26 62.04 26 94 C38.87 94 51.74 94 65 94 C65 100.6 65 107.2 65 114 C43.55 114 22.1 114 0 114 C0 76.38 0 38.76 0 0 Z " fill="#F9D93E" transform="translate(419,566)"/>
<path d="M0 0 C7.67177076 4.94858495 12.1731758 12.4467377 14.48828125 21.171875 C16.41443066 31.81715878 15.14807497 40.51815682 10 50 C9.61199219 50.75152344 9.22398437 51.50304687 8.82421875 52.27734375 C4.67232828 58.97435592 -2.56399376 62.87594548 -10 65 C-19.83548296 66.63154393 -28.37030138 65.10207883 -37.0625 60.3125 C-44.37263694 54.55771134 -49.16316892 48.24936832 -51 39 C-52.19461013 27.80412436 -51.85958243 17.70048331 -45.08203125 8.35546875 C-33.68225317 -5.42514793 -15.94211437 -8.73020549 0 0 Z " fill="#0F0D0B" transform="translate(647,593)"/>
<path d="M0 0 C9.24 0 18.48 0 28 0 C28 41.58 28 83.16 28 126 C18.76 126 9.52 126 0 126 C0 84.42 0 42.84 0 0 Z " fill="#F9F9F9" transform="translate(811,696)"/>
<path d="M0 0 C8.91 0 17.82 0 27 0 C27 41.58 27 83.16 27 126 C18.09 126 9.18 126 0 126 C0 84.42 0 42.84 0 0 Z " fill="#FBFBFB" transform="translate(763,696)"/>
<path d="M0 0 C1.94140625 0.5703125 1.94140625 0.5703125 3.9375 1.4375 C4.68902344 1.70304688 5.44054687 1.96859375 6.21484375 2.2421875 C9.04669813 3.68548762 10.25176009 4.71107372 11.9375 7.4375 C13.33132024 13.23452508 13.43532931 19.65205968 11.9375 25.4375 C9.67609637 28.38577857 7.39739875 29.28860232 3.9375 30.4375 C2.58814926 31.41577929 1.24424304 32.40299509 -0.0625 33.4375 C2.0048747 39.75576874 4.53330401 42.20415008 10.25 45.4375 C10.90162109 45.84355469 11.55324219 46.24960937 12.22460938 46.66796875 C17.06876783 49.50948712 17.68467819 49.47963697 23.9375 48.4375 C24.5975 44.1475 25.2575 39.8575 25.9375 35.4375 C29.8975 35.4375 33.8575 35.4375 37.9375 35.4375 C38.328125 38.46484375 38.71875 41.4921875 39.109375 44.51953125 C39.71778773 47.48450397 39.71778773 47.48450397 41.703125 49.38671875 C44.63027787 50.76329938 45.89016118 50.43777152 48.9375 49.4375 C57.02233151 45.96525065 61.13302019 41.26297473 64.9375 33.4375 C64.16664063 33.02757812 63.39578125 32.61765625 62.6015625 32.1953125 C61.59867187 31.65648437 60.59578125 31.11765625 59.5625 30.5625 C58.56476563 30.02882813 57.56703125 29.49515625 56.5390625 28.9453125 C53.9375 27.4375 53.9375 27.4375 51.9375 25.4375 C51.71044922 23.46630859 51.71044922 23.46630859 51.7421875 21.0859375 C51.74863281 20.23515625 51.75507813 19.384375 51.76171875 18.5078125 C51.78685547 17.17363281 51.78685547 17.17363281 51.8125 15.8125 C51.82152344 14.9153125 51.83054687 14.018125 51.83984375 13.09375 C51.8634503 10.87473414 51.8963769 8.65624923 51.9375 6.4375 C60.19579876 1.48054979 60.19579876 1.48054979 65.9375 2.4375 C68.75 4.8125 68.75 4.8125 70.9375 7.4375 C71.9275 8.4275 71.9275 8.4275 72.9375 9.4375 C73.16455078 11.48461914 73.16455078 11.48461914 73.1328125 13.97265625 C73.12636719 14.86404297 73.11992187 15.75542969 73.11328125 16.67382812 C73.08814453 18.0727832 73.08814453 18.0727832 73.0625 19.5 C73.05347656 20.43650391 73.04445313 21.37300781 73.03515625 22.33789062 C73.01116299 24.70465445 72.97666632 27.0709503 72.9375 29.4375 C72.9375 29.7675 72.9375 30.0975 72.9375 30.4375 C74.5875 30.1075 76.2375 29.7775 77.9375 29.4375 C76.52532173 41.08797076 69.51164374 51.69030413 60.9375 59.4375 C48.96752274 68.36932769 34.27317678 70.0527982 19.83984375 67.99609375 C12.75553676 66.41183945 7.52146759 62.96622962 1.9375 58.4375 C1.06738281 57.74269531 0.19726562 57.04789063 -0.69921875 56.33203125 C-10.76657324 47.82970646 -15.366159 38.98413258 -16.625 26.0625 C-16.71974609 24.81339844 -16.71974609 24.81339844 -16.81640625 23.5390625 C-16.94813303 21.38277426 -16.94813303 21.38277426 -18.0625 19.4375 C-18.102492 17.43789988 -18.10596799 15.43702758 -18.0625 13.4375 C-16.7425 12.7775 -15.4225 12.1175 -14.0625 11.4375 C-14.04832031 12.47390625 -14.03414063 13.5103125 -14.01953125 14.578125 C-13.97261907 15.94796057 -13.92437173 17.31775087 -13.875 18.6875 C-13.86919922 19.36941406 -13.86339844 20.05132813 -13.85742188 20.75390625 C-13.68887328 24.61179627 -13.34737366 26.15307355 -10.57421875 28.921875 C-8.40872919 30.52360802 -8.40872919 30.52360802 -7.0625 30.4375 C-7.866875 29.509375 -8.67125 28.58125 -9.5 27.625 C-13.4077018 23.11611331 -13.70658815 18.42439491 -13.6640625 12.60546875 C-12.73328946 7.70380035 -10.27699942 5.17034379 -6.56640625 1.9765625 C-4.07635508 0.44601622 -2.8798717 -0.14886017 0 0 Z " fill="#15110B" transform="translate(324.0625,604.5625)"/>
<path d="M0 0 C28.4024999 3.36849055 53.36281257 20.2889622 70.8984375 42.34375 C87.21043174 64.78309233 94.85372417 91.33232497 91.2109375 119.03125 C87.87684606 137.48615053 87.87684606 137.48615053 82.39453125 142.74609375 C79.53682264 144.57520615 78.21835506 145.04268001 74.8984375 144.34375 C73.0859375 142.84375 73.0859375 142.84375 71.8984375 140.34375 C71.59206075 134.6083773 72.28387192 129.84311039 73.8359375 124.34375 C79.90297881 102.39092207 76.03726565 81.42070499 65.640625 61.30078125 C62.50655646 55.98129721 58.74476784 51.16215292 54.8984375 46.34375 C54.25261719 45.49425781 53.60679687 44.64476562 52.94140625 43.76953125 C40.24318362 28.69190935 20.23505575 19.16291004 1.24414062 15.20458984 C-2.70703762 14.31300365 -4.66861629 13.76999425 -7.625 10.859375 C-9.30288677 8.0007531 -9.70071203 6.59627601 -9.1015625 3.34375 C-6.44675703 0.02524316 -4.21472426 -0.16367861 0 0 Z " fill="#F5D93D" transform="translate(420.1015625,217.65625)"/>
<path d="M0 0 C7.46430103 2.1831074 14.18484018 5.43802791 21.04980469 9.04296875 C22.88787529 10.00675109 24.7324827 10.95706253 26.578125 11.90625 C36.79978856 17.23144338 36.79978856 17.23144338 39 20 C39.36076355 22.22099304 39.36076355 22.22099304 39.34057617 24.83862305 C39.34023628 26.30980843 39.34023628 26.30980843 39.33988953 27.81071472 C39.32440567 28.86704605 39.30892181 29.92337738 39.29296875 31.01171875 C39.28872391 32.09508011 39.28447906 33.17844147 39.28010559 34.29463196 C39.26329569 37.75917277 39.22563848 41.22313462 39.1875 44.6875 C39.17245619 47.03449682 39.15876726 49.38150274 39.14648438 51.72851562 C39.11338461 57.48587505 39.06316205 63.24289617 39 69 C35.36496655 67.30514362 33.19609402 65.31083483 30.4375 62.375 C20.45084632 52.2275071 7.25042832 42.77691646 -7.0625 40.1875 C-10.07673932 39.44815828 -11.02651638 38.97620325 -13.4375 36.8125 C-15.49529517 33.10846869 -16.28154823 31.29361044 -16 27 C-14.24634858 24.40333364 -12.26743542 22.117715 -10.20703125 19.7578125 C-5.54364768 13.93064648 -2.69535248 6.91471266 0 0 Z " fill="#FBFAFB" transform="translate(525,351)"/>
<path d="M0 0 C5.63314809 3.90701045 9.47882626 9.50878733 11.1328125 16.17578125 C12.46001903 25.02853117 11.01982782 32.75052875 6.3671875 40.515625 C2.65597755 45.38197977 -2.53318323 48.41566429 -8.5 49.625 C-15.45063226 50.44988048 -21.43806045 49.14051256 -27.5 45.625 C-32.68683318 41.12465944 -36.17899601 35.55163099 -36.93359375 28.671875 C-36.95726614 27.23977838 -36.95782437 25.80714805 -36.9375 24.375 C-36.92920166 23.62500732 -36.92090332 22.87501465 -36.91235352 22.10229492 C-36.70077146 15.12460493 -35.57232652 9.17342554 -30.88671875 3.76171875 C-22.76608339 -3.78272963 -9.78731516 -5.24955995 0 0 Z " fill="#0F0D0E" transform="translate(702.5,750.375)"/>
<path d="M0 0 C18.08468574 5.44182502 32.69115552 18.3727472 42.26171875 34.34375 C42.76316406 35.16359375 43.26460938 35.9834375 43.78125 36.828125 C51.57061714 50.85369241 54.20202841 69.66135725 50.01171875 85.21875 C48.64508076 88.83780986 47.28639848 91.82318356 44.26171875 94.34375 C40.69921875 94.90625 40.69921875 94.90625 37.26171875 94.34375 C35.26171875 92.78125 35.26171875 92.78125 34.26171875 90.34375 C34.49290239 87.16497497 35.04477483 84.24527252 35.7890625 81.15234375 C38.61475831 64.36163888 34.89422026 49.31279601 25.26171875 35.34375 C16.73491223 23.79349415 5.27584385 16.84840095 -8.19140625 12.4140625 C-10.73828125 11.34375 -10.73828125 11.34375 -12.73828125 8.34375 C-13.05990201 5.2561907 -13.2255264 3.20359439 -11.67578125 0.46875 C-7.77201289 -1.79795421 -4.18392026 -1.00270842 0 0 Z " fill="#F6D93E" transform="translate(431.73828125,249.65625)"/>
<path d="M0 0 C0.8559375 0.13535156 1.711875 0.27070312 2.59375 0.41015625 C5.75324596 1.18609129 7.52557474 1.85345795 10 4 C12.3658428 8.99718264 13.15552518 14.58023626 14 20 C10.97875977 20.72631836 10.97875977 20.72631836 7.95751953 21.45263672 C5.9134654 21.94940977 5.9134654 21.94940977 3.875 23.125 C1.22957907 24.35952977 -1.12420987 24.13071773 -4 24 C-3.34 24.66 -2.68 25.32 -2 26 C-0.62772001 32.00994437 -0.55961794 39.01329075 -2 45 C-5.87840583 50.68469325 -10.73378739 53.21305287 -17.33984375 54.8046875 C-23.76731863 55.30910289 -27.6606283 54.07615039 -32.75 50.125 C-37.84429114 45.54013797 -37.84429114 45.54013797 -38.19287109 42.09228516 C-38.27994215 39.60310834 -38.33447619 37.11537255 -38.375 34.625 C-38.41238281 33.76132812 -38.44976562 32.89765625 -38.48828125 32.0078125 C-38.5766646 25.64421098 -38.5766646 25.64421098 -35.765625 22.50390625 C-33.29408512 21.15991917 -31.06542388 20.11223081 -28.375 19.3125 C-27.61960937 19.08175781 -26.86421875 18.85101562 -26.0859375 18.61328125 C-25.39757812 18.41089844 -24.70921875 18.20851563 -24 18 C-23.01 17.67 -22.02 17.34 -21 17 C-19.60560336 16.93334624 -18.20830125 16.91461801 -16.8125 16.9375 C-14.9253125 16.9684375 -14.9253125 16.9684375 -13 17 C-13.33 16.67 -13.66 16.34 -14 16 C-14.48322365 11.61428659 -14.56314138 7.37938102 -14 3 C-9.85847874 -1.76274944 -5.73615124 -1.46433438 0 0 Z " fill="#120F0C" transform="translate(376,585)"/>
<path d="M0 0 C1.94140625 0.5703125 1.94140625 0.5703125 3.9375 1.4375 C4.68902344 1.70304688 5.44054687 1.96859375 6.21484375 2.2421875 C9.04669813 3.68548762 10.25176009 4.71107372 11.9375 7.4375 C13.33132024 13.23452508 13.43532931 19.65205968 11.9375 25.4375 C9.67609637 28.38577857 7.39739875 29.28860232 3.9375 30.4375 C2.58814926 31.41577929 1.24424304 32.40299509 -0.0625 33.4375 C1.81452327 38.33312693 1.81452327 38.33312693 4.9375 42.4375 C4.2775 42.4375 3.6175 42.4375 2.9375 42.4375 C3.185 43.675 3.4325 44.9125 3.6875 46.1875 C4.10134541 49.46911925 4.1478352 50.11810211 2.25 53 C-0.0625 54.4375 -0.0625 54.4375 -1.98828125 54.25 C-7.51077126 52.08676474 -11.82794624 45.22994774 -14.2890625 39.9921875 C-15.77851397 35.07248417 -16.16927214 29.95178572 -16.66796875 24.8515625 C-16.84911951 21.57961114 -16.84911951 21.57961114 -18.0625 19.4375 C-18.102492 17.43789988 -18.10596799 15.43702758 -18.0625 13.4375 C-16.7425 12.7775 -15.4225 12.1175 -14.0625 11.4375 C-14.04832031 12.47390625 -14.03414063 13.5103125 -14.01953125 14.578125 C-13.97261907 15.94796057 -13.92437173 17.31775087 -13.875 18.6875 C-13.86919922 19.36941406 -13.86339844 20.05132813 -13.85742188 20.75390625 C-13.68887328 24.61179627 -13.34737366 26.15307355 -10.57421875 28.921875 C-8.40872919 30.52360802 -8.40872919 30.52360802 -7.0625 30.4375 C-7.866875 29.509375 -8.67125 28.58125 -9.5 27.625 C-13.4077018 23.11611331 -13.70658815 18.42439491 -13.6640625 12.60546875 C-12.73328946 7.70380035 -10.27699942 5.17034379 -6.56640625 1.9765625 C-4.07635508 0.44601622 -2.8798717 -0.14886017 0 0 Z " fill="#14100C" transform="translate(324.0625,604.5625)"/>
<path d="M0 0 C0.33 0 0.66 0 1 0 C1.33 5.94 1.66 11.88 2 18 C3.32 18.66 4.64 19.32 6 20 C7.2065625 21.299375 7.2065625 21.299375 8.4375 22.625 C12.38073464 25.94090185 16.62841712 25.85882703 21.60546875 25.7109375 C26.63632084 24.65729529 29.78047635 22.02503252 33.5625 18.65234375 C36 17 36 17 38.41796875 17.0625 C41.51621194 18.18742945 44.38354189 19.54974141 47.3125 21.0625 C48.91544922 21.88427734 48.91544922 21.88427734 50.55078125 22.72265625 C51.35902344 23.14417969 52.16726563 23.56570313 53 24 C49.32707477 32.09483913 45.8091485 36.73099882 38 41 C37.01 41.66 36.02 42.32 35 43 C31.2109597 42.70853536 28.69409635 41.69409635 26 39 C24.6912392 35.07371761 24.91947814 31.10661509 25 27 C21.04 27 17.08 27 13 27 C12.96261719 27.91523437 12.92523438 28.83046875 12.88671875 29.7734375 C12.82097656 30.96195313 12.75523437 32.15046875 12.6875 33.375 C12.62949219 34.55835938 12.57148438 35.74171875 12.51171875 36.9609375 C12.34285156 37.96382812 12.17398437 38.96671875 12 40 C9 42 9 42 6.26171875 41.87890625 C2.35632453 40.82655451 -0.81666983 39.10702845 -4.1875 36.9375 C-4.81027832 36.53990479 -5.43305664 36.14230957 -6.07470703 35.73266602 C-9.56428329 33.36898604 -11.91232668 31.43309541 -13.375 27.4375 C-13.58125 26.303125 -13.7875 25.16875 -14 24 C-13.14535156 23.50628906 -12.29070312 23.01257813 -11.41015625 22.50390625 C-10.30542969 21.86324219 -9.20070313 21.22257813 -8.0625 20.5625 C-6.96035156 19.92441406 -5.85820312 19.28632812 -4.72265625 18.62890625 C-2.1716429 17.25289773 -2.1716429 17.25289773 -1 16 C-0.76321284 13.30764224 -0.57801975 10.63501844 -0.4375 7.9375 C-0.39431641 7.17888672 -0.35113281 6.42027344 -0.30664062 5.63867188 C-0.20026367 3.75934562 -0.09960066 1.87969756 0 0 Z " fill="#F6D835" transform="translate(337,613)"/>
<path d="M0 0 C2.40092203 0.98663955 2.40092203 0.98663955 5.08203125 1.390625 C8.47223434 2.14082197 9.30819293 4.16029911 11.39453125 6.90234375 C12.66984901 8.00487652 13.96333845 9.08656974 15.26953125 10.15234375 C19.51555842 13.82479877 23.14611188 17.69454236 25.39453125 22.90234375 C25.57881906 25.90075624 25.14651795 27.94811028 24.39453125 30.90234375 C22.39453125 28.90234375 22.39453125 28.90234375 20.39453125 25.90234375 C19.73453125 26.89234375 19.07453125 27.88234375 18.39453125 28.90234375 C15.76953125 29.08984375 15.76953125 29.08984375 13.39453125 28.90234375 C10.93963809 23.77908846 9.89111422 19.56338964 9.39453125 13.90234375 C8.54890625 13.79921875 7.70328125 13.69609375 6.83203125 13.58984375 C3.39453125 12.90234375 3.39453125 12.90234375 -0.04296875 11.27734375 C-4.18115355 9.68014962 -6.34076936 9.85628541 -10.60546875 10.90234375 C-11.94596927 11.55447914 -13.28208243 12.21614344 -14.60546875 12.90234375 C-15.26546875 12.57234375 -15.92546875 12.24234375 -16.60546875 11.90234375 C-18.66651959 11.77262726 -20.72951291 11.67295187 -22.79296875 11.58984375 C-26.97606347 11.32293562 -29.99192784 11.09375723 -33.48046875 8.71484375 C-36.55796957 6.46767944 -36.55796957 6.46767944 -40.29296875 7.65234375 C-41.93265625 8.27109375 -41.93265625 8.27109375 -43.60546875 8.90234375 C-44.92546875 8.90234375 -46.24546875 8.90234375 -47.60546875 8.90234375 C-47.60546875 7.25234375 -47.60546875 5.60234375 -47.60546875 3.90234375 C-48.26546875 3.57234375 -48.92546875 3.24234375 -49.60546875 2.90234375 C-32.62994719 -6.23169323 -17.84132987 -7.63804914 0 0 Z " fill="#DECD28" transform="translate(376.60546875,575.09765625)"/>
<path d="M0 0 C8.6590429 2.41052672 16.44817551 9.49101535 21.078125 16.984375 C26.31410174 26.89991678 29.39631534 36.35264758 27.51171875 47.69921875 C26.00663001 50.27724203 24.6270436 52.5838939 22.51171875 54.69921875 C15.91171875 54.09921875 15.91171875 54.09921875 13.51171875 51.69921875 C13.53899061 49.86151481 13.57838582 48.02281367 13.69287109 46.18847656 C14.27959104 36.1858829 12.41636929 28.93522578 6.51171875 20.69921875 C3.42535525 17.64975456 0.02773575 15.29120446 -3.80078125 13.26171875 C-6.77525666 11.449682 -7.36263762 11.02324705 -8.67578125 7.63671875 C-8.48828125 4.69921875 -8.48828125 4.69921875 -7.55078125 2.32421875 C-5.07401698 0.37282872 -3.15446697 -0.16909342 0 0 Z " fill="#F4D738" transform="translate(429.48828125,277.30078125)"/>
<path d="M0 0 C2 1 2 1 3 3 C3.33 2.01 3.66 1.02 4 0 C4.66 0 5.32 0 6 0 C12.0240375 15.70552634 11.53977558 31.35886006 5.4375 47.0625 C2.35086459 53.91752768 -1.60094977 58.83335922 -7 64 C-7.75796875 64.76570312 -8.5159375 65.53140625 -9.296875 66.3203125 C-13.27688926 70.1493607 -16.42371561 72.74064882 -21.9296875 73.63671875 C-24.26930327 74.0472551 -26.32969012 74.81809346 -28.5625 75.625 C-35.24345966 77.70561185 -42.08422762 77.24896781 -49 77 C-49 76.67 -49 76.34 -49 76 C-45.535 75.505 -45.535 75.505 -42 75 C-43.98 74.67 -45.96 74.34 -48 74 C-48 73.67 -48 73.34 -48 73 C-47.175 72.98582031 -46.35 72.97164062 -45.5 72.95703125 C-32.34682073 72.41387541 -18.43152918 69.9418524 -9 60 C-2.08235871 52.22246638 1.55842033 43.65988838 5 34 C4.05125 34.515625 3.1025 35.03125 2.125 35.5625 C1.09375 36.036875 0.0625 36.51125 -1 37 C-1.99 36.505 -1.99 36.505 -3 36 C-2.34 35.34 -1.68 34.68 -1 34 C-0.524136 30.75092854 -0.62962295 27.46748498 -0.625 24.1875 C-0.58826172 22.83301758 -0.58826172 22.83301758 -0.55078125 21.45117188 C-0.53170573 17.1242076 -0.58244648 14.67616177 -2.8984375 10.92578125 C-5.62087359 8.43105822 -6.51674565 8.03717341 -10.25 7.75 C-14.55529984 7.79424158 -14.55529984 7.79424158 -20 11 C-20.33 17.27 -20.66 23.54 -21 30 C-21.66 30 -22.32 30 -23 30 C-23.01981934 29.44014404 -23.03963867 28.88028809 -23.06005859 28.3034668 C-23.15537783 25.76434146 -23.26502753 23.22603112 -23.375 20.6875 C-23.4059375 19.80642578 -23.436875 18.92535156 -23.46875 18.01757812 C-23.50742187 17.17001953 -23.54609375 16.32246094 -23.5859375 15.44921875 C-23.63306885 14.27879028 -23.63306885 14.27879028 -23.68115234 13.0847168 C-23.89587889 10.69844232 -23.89587889 10.69844232 -26 8 C-24.96875 8.061875 -23.9375 8.12375 -22.875 8.1875 C-19.05645329 8.27453971 -19.05645329 8.27453971 -16.25 6.5625 C-12.21671088 4.62341869 -8.81968442 4.59466566 -4.390625 4.50390625 C-1.82621455 4.25746537 -1.82621455 4.25746537 -0.671875 1.96484375 C-0.33929688 0.99224609 -0.33929688 0.99224609 0 0 Z " fill="#DDCB2D" transform="translate(397,600)"/>
<path d="M0 0 C-0.53281727 2.66408637 -1.34931235 4.75684343 -2.5 7.25 C-3.7180286 9.95286346 -4.18557863 12.17225516 -4.375 15.125 C-5.11260161 19.69812997 -6.48297396 21.11423504 -10 24 C-12.66188274 23.0113007 -14.9518843 22.03251061 -17.3125 20.4375 C-20.84603847 18.5474678 -24.01326179 17.3477579 -28 18 C-30.35587221 19.61966214 -32.25479038 21.37768333 -34.23828125 23.43359375 C-36 25 -36 25 -39 25 C-38.8349028 17.67568804 -37.43630328 12.86050397 -33 7 C-32.401875 7.165 -31.80375 7.33 -31.1875 7.5 C-28.88655664 8.1114124 -28.88655664 8.1114124 -26 8 C-24.33969183 6.29072667 -24.33969183 6.29072667 -22.75 4.125 C-17.45321097 -2.1600788 -7.3465123 -4.89767487 0 0 Z " fill="#100D0B" transform="translate(347,586)"/>
<path d="M0 0 C8.91 0 17.82 0 27 0 C27 15.18 27 30.36 27 46 C42.84 46 58.68 46 75 46 C75 46.33 75 46.66 75 47 C58.5 47 42 47 25 47 C24.34 44.03 23.68 41.06 23 38 C22.34 38.66 21.68 39.32 21 40 C21 27.46 21 14.92 21 2 C14.73 2 8.46 2 2 2 C2.00523682 4.93092529 2.01047363 7.86185059 2.01586914 10.8815918 C2.03249668 20.6045352 2.0435078 30.32747926 2.05181217 40.05043316 C2.05701347 45.94093775 2.06406071 51.83142767 2.07543945 57.72192383 C2.08636667 63.41480972 2.09229754 69.10768158 2.09487724 74.80057716 C2.09671386 76.96409132 2.10030005 79.12760478 2.10573006 81.2911129 C2.1320975 92.24000884 2.15186178 103.09873964 1 114 C0.67 114 0.34 114 0 114 C0 76.38 0 38.76 0 0 Z " fill="#C8B33B" transform="translate(188,566)"/>
<path d="M0 0 C2.8125 2.375 2.8125 2.375 5 5 C5.66 5.66 6.32 6.32 7 7 C7.25878906 8.99951172 7.25878906 8.99951172 7.265625 11.4296875 C7.26949219 12.74646484 7.26949219 12.74646484 7.2734375 14.08984375 C7.26570313 15.00894531 7.25796875 15.92804687 7.25 16.875 C7.25773437 17.78636719 7.26546875 18.69773437 7.2734375 19.63671875 C7.27085937 20.51714844 7.26828125 21.39757812 7.265625 22.3046875 C7.26336914 23.10890137 7.26111328 23.91311523 7.25878906 24.74169922 C6.96835785 27.27612258 6.4022909 28.87183811 5 31 C2.125 31.9375 2.125 31.9375 -1 32 C-2.875 30.875 -2.875 30.875 -5 29 C-6.38479674 28.1076359 -7.78172912 27.23394349 -9.1875 26.375 C-12.89473684 24.10526316 -12.89473684 24.10526316 -14 23 C-14.08651611 21.58429877 -14.10704904 20.164405 -14.09765625 18.74609375 C-14.09443359 17.89208984 -14.09121094 17.03808594 -14.08789062 16.15820312 C-14.07951172 15.26037109 -14.07113281 14.36253906 -14.0625 13.4375 C-14.05798828 12.53580078 -14.05347656 11.63410156 -14.04882812 10.70507812 C-14.03700225 8.46998686 -14.0205222 6.23502563 -14 4 C-5.74170124 -0.95695021 -5.74170124 -0.95695021 0 0 Z " fill="#13100D" transform="translate(390,607)"/>
<path d="M0 0 C0.33 0 0.66 0 1 0 C1.33 5.94 1.66 11.88 2 18 C3.32 18.66 4.64 19.32 6 20 C7.43758346 21.01260441 8.8545128 22.05512648 10.25 23.125 C10.95640625 23.66382813 11.6628125 24.20265625 12.390625 24.7578125 C12.92171875 25.16773438 13.4528125 25.57765625 14 26 C13.74549519 28.29353747 13.47088853 30.58485203 13.1875 32.875 C13.03667969 34.15117188 12.88585937 35.42734375 12.73046875 36.7421875 C12 40 12 40 9 42 C3.87023432 41.77314874 0.04066337 39.6588239 -4.1875 36.9375 C-4.81027832 36.53990479 -5.43305664 36.14230957 -6.07470703 35.73266602 C-9.56428329 33.36898604 -11.91232668 31.43309541 -13.375 27.4375 C-13.58125 26.303125 -13.7875 25.16875 -14 24 C-13.14535156 23.50628906 -12.29070312 23.01257813 -11.41015625 22.50390625 C-10.30542969 21.86324219 -9.20070313 21.22257813 -8.0625 20.5625 C-6.96035156 19.92441406 -5.85820312 19.28632812 -4.72265625 18.62890625 C-2.1716429 17.25289773 -2.1716429 17.25289773 -1 16 C-0.76321284 13.30764224 -0.57801975 10.63501844 -0.4375 7.9375 C-0.39431641 7.17888672 -0.35113281 6.42027344 -0.30664062 5.63867188 C-0.20026367 3.75934562 -0.09960066 1.87969756 0 0 Z " fill="#F6DA3F" transform="translate(337,613)"/>
<path d="M0 0 C3.39658399 2.21516347 4.4571728 4.121928 5.875 7.875 C1.19793003 10.62578842 -2.71941338 11.38662229 -8.0625 11.3125 C-8.77615723 11.31072754 -9.48981445 11.30895508 -10.22509766 11.30712891 C-14.03157973 11.21168227 -16.86342533 10.96891973 -20 8.75 C-23.65674985 6.55595009 -24.52774139 6.8057027 -28.5625 7.625 C-30.0899931 8.01654816 -31.61370702 8.42495702 -33.125 8.875 C-32.795 7.225 -32.465 5.575 -32.125 3.875 C-21.75064207 -0.14273198 -11.08599569 -3.84994829 0 0 Z " fill="#120F0A" transform="translate(363.125,575.125)"/>
<path d="M0 0 C0.4375 2.1875 0.4375 2.1875 0 5 C-7.30318207 12.30318207 -19.48226612 15.17969166 -29.58813477 15.43823242 C-34.84643383 15.43639792 -39.20042327 15.28507573 -44 13 C-43.34 12.67 -42.68 12.34 -42 12 C-42 10.35 -42 8.7 -42 7 C-36.88661499 4.44330749 -28.7189286 5.32419694 -23.296875 6.671875 C-21.125 7.5 -21.125 7.5 -18 9 C-18 8.34 -18 7.68 -18 7 C-15.94414903 5.82006797 -13.88163459 4.65621545 -11.8125 3.5 C-10.66394531 2.8503125 -9.51539063 2.200625 -8.33203125 1.53125 C-5.14862918 0.06830321 -3.42692535 -0.36140832 0 0 Z " fill="#141009" transform="translate(386,658)"/>
<path d="M0 0 C2.79790503 2.79790503 2.4115071 5.17979846 2.65625 9.00390625 C2.7696875 9.66261719 2.883125 10.32132813 3 11 C3.66 11.33 4.32 11.66 5 12 C5.34980605 14.51142807 5.60307286 16.97669976 5.8125 19.5 C6.53282935 26.31640813 7.79775692 31.42697174 12 37 C12.48210937 37.66 12.96421875 38.32 13.4609375 39 C20.32698408 47.574185 29.29398622 54.36104269 40 57 C41.010625 57.37125 42.02125 57.7425 43.0625 58.125 C46.71713595 59.21361496 50.2082383 59.60774879 54 60 C51.428931 62.571069 50.27389869 62.38599527 46.6875 62.5 C39.15838975 62.40928783 33.5596802 59.39870679 27 56 C26.17371094 55.72027344 25.34742188 55.44054687 24.49609375 55.15234375 C21.04442573 53.55885069 18.62641416 51.11655021 16 48.4375 C15.20227173 47.62732422 15.20227173 47.62732422 14.38842773 46.80078125 C10.31566575 42.55116157 7.40181471 38.39033224 5 33 C4.53851563 32.18015625 4.07703125 31.3603125 3.6015625 30.515625 C-1.36759072 20.79694965 -0.48504825 10.6203179 0 0 Z " fill="#E4D13D" transform="translate(303,614)"/>
<path d="M0 0 C2.12493141 -0.02693575 4.24995912 -0.04636628 6.375 -0.0625 C7.55835938 -0.07410156 8.74171875 -0.08570313 9.9609375 -0.09765625 C13 0 13 0 15 1 C15.37890625 4.08984375 15.37890625 4.08984375 15.5625 7.9375 C15.62577741 12.63351942 15.62577741 12.63351942 17 17 C16.38511719 16.98839844 15.77023437 16.97679687 15.13671875 16.96484375 C13.92435547 16.95130859 13.92435547 16.95130859 12.6875 16.9375 C11.88699219 16.92589844 11.08648437 16.91429687 10.26171875 16.90234375 C7.83138666 16.90342145 7.83138666 16.90342145 5 18 C3.43881572 18.06740865 1.8749748 18.08514456 0.3125 18.0625 C-0.89986328 18.04896484 -0.89986328 18.04896484 -2.13671875 18.03515625 C-2.75160156 18.02355469 -3.36648438 18.01195312 -4 18 C-3.40546697 5.33029613 -3.40546697 5.33029613 0 0 Z " fill="#F5D52A" transform="translate(347,586)"/>
<path d="M0 0 C7.80286313 0.79016335 13.1789163 7.77136762 18.08203125 13.3828125 C20.90425615 17.17662303 22.43162721 19.76369874 21.875 24.5625 C21.58625 25.696875 21.2975 26.83125 21 28 C19 26 19 26 17 23 C16.34 23.99 15.68 24.98 15 26 C12.375 26.1875 12.375 26.1875 10 26 C7.54510684 20.87674471 6.49658297 16.66104589 6 11 C5.13375 10.896875 4.2675 10.79375 3.375 10.6875 C-0.16683123 9.96601586 -2.84312042 8.72876739 -6 7 C-6 6.67 -6 6.34 -6 6 C-4.02 5.67 -2.04 5.34 0 5 C0 3.35 0 1.7 0 0 Z " fill="#F2D535" transform="translate(380,578)"/>
<path d="M0 0 C16.5 0 33 0 50 0 C50 0.33 50 0.66 50 1 C33.83 1 17.66 1 1 1 C1 16.51 1 32.02 1 48 C-7.25 48 -15.5 48 -24 48 C-24 47.67 -24 47.34 -24 47 C-16.08 47 -8.16 47 0 47 C-0.33 45.02 -0.66 43.04 -1 41 C-1.33 42.65 -1.66 44.3 -2 46 C-2.66 46 -3.32 46 -4 46 C-4 33.79 -4 21.58 -4 9 C-3.34 9 -2.68 9 -2 9 C-1.34 6.03 -0.68 3.06 0 0 Z " fill="#EBD34A" transform="translate(213,632)"/>
<path d="M0 0 C0 0.66 0 1.32 0 2 C0.66 2 1.32 2 2 2 C2 3.65 2 5.3 2 7 C2.71285156 6.73703125 3.42570312 6.4740625 4.16015625 6.203125 C11.8898887 3.66469335 11.8898887 3.66469335 15.2890625 4.69140625 C17.1875 5.8125 17.1875 5.8125 20 8 C19.01 8.33 18.02 8.66 17 9 C16.67 8.67 16.34 8.34 16 8 C9.34283031 7.5328302 3.43428207 8.04994425 -1.80078125 12.546875 C-5.13470712 16.14337737 -6.75412616 18.95958625 -7 24 C-7.33 24 -7.66 24 -8 24 C-8.66 21.69 -9.32 19.38 -10 17 C-11.65 17.33 -13.3 17.66 -15 18 C-14.49094291 11.0428864 -10.96419282 6.55520389 -5.875 2.0625 C-3 0 -3 0 0 0 Z " fill="#EBD034" transform="translate(327,577)"/>
<path d="M0 0 C2.72219207 1.36109603 2.98081729 3.15433999 3.95532227 5.91430664 C9.04157987 21.280627 9.04157987 21.280627 6.16015625 27.94140625 C5.125 29.625 5.125 29.625 3 32 C2.34 32 1.68 32 1 32 C0.94613371 29.87527424 0.90726929 27.75016348 0.875 25.625 C0.85179687 24.44164062 0.82859375 23.25828125 0.8046875 22.0390625 C1 19 1 19 3 17 C2.51789063 16.39671875 2.03578125 15.7934375 1.5390625 15.171875 C0.90742188 14.37265625 0.27578125 13.5734375 -0.375 12.75 C-1.00148438 11.96109375 -1.62796875 11.1721875 -2.2734375 10.359375 C-3.78910737 8.28818811 -4.94219634 6.32930503 -6 4 C-4.68 4 -3.36 4 -2 4 C-1.34 2.68 -0.68 1.36 0 0 Z " fill="#1F190C" transform="translate(397,600)"/>
<path d="M0 0 C0.33 0.99 0.66 1.98 1 3 C1.71671875 3.11988281 2.4334375 3.23976563 3.171875 3.36328125 C7.84000597 4.41425549 12.07053396 6.25952368 16 9 C17.125 12.3125 17.125 12.3125 17 15 C13.43937065 15.93341977 11.59673503 16.26650302 8.18359375 14.7421875 C7.27738281 14.12601563 6.37117188 13.50984375 5.4375 12.875 C4.49132812 12.23175781 3.54515625 11.58851563 2.5703125 10.92578125 C-0.27285781 8.79556398 -2.65948022 6.6633501 -5 4 C-3.35 3.34 -1.7 2.68 0 2 C0 1.34 0 0.68 0 0 Z " fill="#251D0D" transform="translate(327,655)"/>
<path d="M0 0 C0.53367187 0.18175781 1.06734375 0.36351562 1.6171875 0.55078125 C7.37591783 2.4936055 13.16993922 4.28384432 19 6 C18.01 6.66 17.02 7.32 16 8 C15.27034634 10.56282742 15.27034634 10.56282742 15 13 C14.20335937 13.03738281 13.40671875 13.07476563 12.5859375 13.11328125 C6.68223426 13.47956941 2.03056497 13.78602794 -3 17 C-3.66 16.34 -4.32 15.68 -5 15 C-2.36 13.68 0.28 12.36 3 11 C1.515 8.03 1.515 8.03 0 5 C0.99 4.34 1.98 3.68 3 3 C1.68 2.34 0.36 1.68 -1 1 C-0.67 0.67 -0.34 0.34 0 0 Z " fill="#B5A435" transform="translate(365,571)"/>
<path d="M0 0 C2.38564077 0.57584432 4.66682784 1.22227595 7 2 C7.57816539 5.23772618 7.87434971 6.9005088 7 10 C4.04375819 13.22301133 0.76122239 15.77288249 -3 18 C-3.99 18 -4.98 18 -6 18 C-5.8349028 10.67568804 -4.43630328 5.86050397 0 0 Z " fill="#1D180D" transform="translate(314,593)"/>
<path d="M0 0 C0.99 0.33 1.98 0.66 3 1 C3 4 3 4 1 6.0625 C-1.93501811 7.95803253 -4.38596888 8.79396849 -7.7890625 9.49609375 C-10.13397282 10.03053444 -12.29861006 10.81646788 -14.5625 11.625 C-21.24345966 13.70561185 -28.08422762 13.24896781 -35 13 C-35 12.67 -35 12.34 -35 12 C-31.535 11.505 -31.535 11.505 -28 11 C-30.97 10.505 -30.97 10.505 -34 10 C-34 9.67 -34 9.34 -34 9 C-33.175 8.98582031 -32.35 8.97164062 -31.5 8.95703125 C-24.40868028 8.66419773 -18.13198944 7.74436533 -11.375 5.625 C-10.70082031 5.41593018 -10.02664063 5.20686035 -9.33203125 4.99145508 C-6.46808995 4.04367854 -4.13902897 3.10558558 -1.7265625 1.2734375 C-1.15679687 0.85320313 -0.58703125 0.43296875 0 0 Z " fill="#C6B42E" transform="translate(383,664)"/>
<path d="M0 0 C3.24002995 3.72550675 5.86171513 7.9635816 8.5 12.125 C7.51 12.62 7.51 12.62 6.5 13.125 C6.41921359 15.24938339 6.36090859 17.3746323 6.3125 19.5 C6.27769531 20.68335938 6.24289062 21.86671875 6.20703125 23.0859375 C6.30371094 24.08882812 6.40039062 25.09171875 6.5 26.125 C7.49 26.785 8.48 27.445 9.5 28.125 C7.53533587 29.19275224 5.53144641 30.19053465 3.5 31.125 C2.84 30.795 2.18 30.465 1.5 30.125 C2.16 29.465 2.82 28.805 3.5 28.125 C3.975864 24.87592854 3.87037705 21.59248498 3.875 18.3125 C3.89949219 17.40951172 3.92398437 16.50652344 3.94921875 15.57617188 C3.96829427 11.2492076 3.91755352 8.80116177 1.6015625 5.05078125 C-1.12087359 2.55605822 -2.01674565 2.16217341 -5.75 1.875 C-10.05529984 1.91924158 -10.05529984 1.91924158 -15.5 5.125 C-15.83 11.395 -16.16 17.665 -16.5 24.125 C-17.16 24.125 -17.82 24.125 -18.5 24.125 C-18.51981934 23.56514404 -18.53963867 23.00528809 -18.56005859 22.4284668 C-18.65537783 19.88934146 -18.76502753 17.35103112 -18.875 14.8125 C-18.9059375 13.93142578 -18.936875 13.05035156 -18.96875 12.14257812 C-19.00742187 11.29501953 -19.04609375 10.44746094 -19.0859375 9.57421875 C-19.1173584 8.79393311 -19.1487793 8.01364746 -19.18115234 7.2097168 C-19.39587889 4.82344232 -19.39587889 4.82344232 -21.5 2.125 C-20.46875 2.186875 -19.4375 2.24875 -18.375 2.3125 C-14.18917586 2.10996012 -12.14667086 1.06471854 -8.5 -0.875 C-4.59316446 -2.1507014 -3.34233607 -2.50675205 0 0 Z " fill="#BAAA3A" transform="translate(392.5,605.875)"/>
<path d="M0 0 C1.65 0 3.3 0 5 0 C5 14.85 5 29.7 5 45 C2.9774466 41.9661699 2.74422913 41.31241136 2.68115234 37.89575195 C2.66128265 37.07512772 2.64141296 36.25450348 2.62094116 35.40901184 C2.60938995 34.52767075 2.59783875 33.64632965 2.5859375 32.73828125 C2.56657135 31.83248825 2.5472052 30.92669525 2.5272522 29.99345398 C2.46746458 27.09989849 2.42107432 24.2063032 2.375 21.3125 C2.33681946 19.35089409 2.29776769 17.38930494 2.2578125 15.42773438 C2.16176368 10.6186256 2.07772957 5.80943834 2 1 C1.34 0.67 0.68 0.34 0 0 Z " fill="#F0D03B" transform="translate(209,568)"/>
<path d="M0 0 C0 0.66 0 1.32 0 2 C-0.94875 2.391875 -1.8975 2.78375 -2.875 3.1875 C-6.97392013 4.93100795 -10.91140763 6.96013352 -14.86328125 9.01171875 C-17 10 -17 10 -19 10 C-18.67 10.99 -18.34 11.98 -18 13 C-19.175625 12.525625 -20.35125 12.05125 -21.5625 11.5625 C-28.18531727 9.31244029 -35.06905055 9.26481889 -42 9 C-41 7 -41 7 -39.28125 6.38671875 C-36.65683027 5.94182568 -34.16212808 5.83078385 -31.5 5.8125 C-30.5615625 5.79832031 -29.623125 5.78414062 -28.65625 5.76953125 C-26 6 -26 6 -24.03125 7.07421875 C-21.01190219 8.45034458 -19.17170967 7.84865721 -16 7 C-13.73192447 5.88861634 -11.50215852 4.69636291 -9.3125 3.4375 C-3.31589537 0 -3.31589537 0 0 0 Z " fill="#B5A540" transform="translate(387,655)"/>
<path d="M0 0 C0.66 0 1.32 0 2 0 C2.65589802 8.04646325 3.10382453 16.05097049 3.125 24.125 C3.12951172 24.83454834 3.13402344 25.54409668 3.13867188 26.27514648 C3.12807092 29.97532226 2.88185257 33.40260143 2 37 C1.34 37 0.68 37 0 37 C0 24.79 0 12.58 0 0 Z " fill="#F6D646" transform="translate(209,641)"/>
<path d="M0 0 C0.99966797 0.59748047 0.99966797 0.59748047 2.01953125 1.20703125 C11.03924703 6.39179095 19.67347539 9.02579956 30 10 C27.428931 12.571069 26.27389869 12.38599527 22.6875 12.5 C15.19137371 12.40957628 9.49721568 9.48322952 3 6 C1.66842335 5.32983149 0.33589246 4.66152367 -1 4 C-0.01 4 0.98 4 2 4 C2 3.34 2 2.68 2 2 C1.34 2 0.68 2 0 2 C0 1.34 0 0.68 0 0 Z " fill="#D8C33B" transform="translate(327,664)"/>
<path d="M0 0 C0.66 0 1.32 0 2 0 C2.63961849 4.26412326 1.91879445 6.56109667 -0.5625 9.9375 C-3.76379128 13.90282261 -7.30211194 17.49904089 -11 21 C-11.33 20.34 -11.66 19.68 -12 19 C-12.66 18.67 -13.32 18.34 -14 18 C-13.11248047 17.05640625 -13.11248047 17.05640625 -12.20703125 16.09375 C-8.46022583 12.03522015 -4.89501522 8.13567317 -2.0625 3.375 C-1.381875 2.26125 -0.70125 1.1475 0 0 Z " fill="#DDC936" transform="translate(398,646)"/>
<path d="M0 0 C0 5.94 0 11.88 0 18 C-19.8 18 -39.6 18 -60 18 C-60 17.67 -60 17.34 -60 17 C-40.53 17 -21.06 17 -1 17 C-1.495 9.575 -1.495 9.575 -2 2 C-2.66 1.67 -3.32 1.34 -4 1 C-2 0 -2 0 0 0 Z " fill="#F6D82F" transform="translate(483,661)"/>
<path d="M0 0 C2.79790503 2.79790503 2.4115071 5.17979846 2.65625 9.00390625 C2.7696875 9.66261719 2.883125 10.32132813 3 11 C3.66 11.33 4.32 11.66 5 12 C5 16.29 5 20.58 5 25 C4.34 25 3.68 25 3 25 C0.09229046 19.31432124 -0.3864851 14.89430777 -0.1875 8.5625 C-0.17396484 7.73556641 -0.16042969 6.90863281 -0.14648438 6.05664062 C-0.11146992 4.0374736 -0.05767562 2.01864682 0 0 Z " fill="#E8CA2F" transform="translate(303,614)"/>
<path d="M0 0 C4.8851084 0.44572157 7.22436769 2.58758609 10.75 5.875 C12.19632812 7.20144531 12.19632812 7.20144531 13.671875 8.5546875 C16 11 16 11 17 14 C16.34 14 15.68 14 15 14 C14.11444812 12.83571704 13.26571238 11.64324508 12.4375 10.4375 C10.1242321 7.58888489 10.1242321 7.58888489 6.67578125 6.72265625 C3.5265467 7.08271366 0.84360753 7.57819624 -2 9 C-3.32 8.01 -4.64 7.02 -6 6 C-4.02 5.67 -2.04 5.34 0 5 C0 3.35 0 1.7 0 0 Z " fill="#EBD74C" transform="translate(380,578)"/>
<path d="M0 0 C1.07174763 3.65188082 0.76411467 6.26432828 0 10 C1.32 10.33 2.64 10.66 4 11 C3.43410156 11.32613281 2.86820312 11.65226563 2.28515625 11.98828125 C1.55167969 12.42527344 0.81820313 12.86226562 0.0625 13.3125 C-0.66839844 13.74175781 -1.39929688 14.17101562 -2.15234375 14.61328125 C-4.29977412 15.95110254 -4.29977412 15.95110254 -5 19 C-5.22797562 21.73289293 -5.41668187 24.45042204 -5.5625 27.1875 C-5.60568359 27.93708984 -5.64886719 28.68667969 -5.69335938 29.45898438 C-5.79922685 31.30578375 -5.9000976 33.15286834 -6 35 C-6.33 35 -6.66 35 -7 35 C-6.98646484 33.24623047 -6.98646484 33.24623047 -6.97265625 31.45703125 C-6.73646401 23.22544026 -6.73646401 23.22544026 -9.51953125 15.79296875 C-12.15289402 13.9579307 -14.97122117 13.00959294 -18 12 C-18 11.34 -18 10.68 -18 10 C-14.08788267 11.15585285 -11.1254959 12.35534962 -8 15 C-5.53199953 13.84826645 -3.95216435 12.95216435 -2 11 C-1.31822002 8.34280163 -1.31822002 8.34280163 -0.875 5.375 C-0.70742188 4.37210938 -0.53984375 3.36921875 -0.3671875 2.3359375 C-0.24601562 1.56507813 -0.12484375 0.79421875 0 0 Z " fill="#8D7F2D" transform="translate(343,594)"/>
<path d="M0 0 C2.0625 0.4375 2.0625 0.4375 4 1 C4.46882399 9.12628256 4.46882399 9.12628256 2.625 12.5625 C1 14 1 14 -1 14 C-1.02685938 11.85423363 -1.04633088 9.70837355 -1.0625 7.5625 C-1.07410156 6.36753906 -1.08570313 5.17257812 -1.09765625 3.94140625 C-1 1 -1 1 0 0 Z " fill="#080507" transform="translate(399,618)"/>
<path d="M0 0 C0.99 0.33 1.98 0.66 3 1 C-0.96 2.98 -0.96 2.98 -5 5 C-5.33 11.27 -5.66 17.54 -6 24 C-6.66 24 -7.32 24 -8 24 C-8.01981934 23.44014404 -8.03963867 22.88028809 -8.06005859 22.3034668 C-8.15537783 19.76434146 -8.26502753 17.22603112 -8.375 14.6875 C-8.4059375 13.80642578 -8.436875 12.92535156 -8.46875 12.01757812 C-8.50742187 11.17001953 -8.54609375 10.32246094 -8.5859375 9.44921875 C-8.6173584 8.66893311 -8.6487793 7.88864746 -8.68115234 7.0847168 C-8.89587889 4.69844232 -8.89587889 4.69844232 -11 2 C-9.39125 2.061875 -9.39125 2.061875 -7.75 2.125 C-4.2101456 2.00700485 -2.97053185 1.59135635 0 0 Z " fill="#9C922E" transform="translate(382,606)"/>
<path d="M0 0 C0.99 0.33 1.98 0.66 3 1 C3 4 3 4 1.125 6.0625 C-3.06588866 8.66085097 -7.17138206 9.28742726 -12 10 C-12 9.01 -12 8.02 -12 7 C-11.46890625 6.74605469 -10.9378125 6.49210938 -10.390625 6.23046875 C-5.85008296 4.02202254 -5.85008296 4.02202254 -1.6875 1.1875 C-1.130625 0.795625 -0.57375 0.40375 0 0 Z " fill="#D1BC33" transform="translate(383,664)"/>
<path d="M0 0 C5.63470383 -0.5497272 8.38987758 1.04952165 13 4 C13 4.66 13 5.32 13 6 C11.39667209 6.08121924 9.79215974 6.13929134 8.1875 6.1875 C7.29417969 6.22230469 6.40085937 6.25710938 5.48046875 6.29296875 C3 6 3 6 1.17578125 4.67578125 C0 3 0 3 0 0 Z " fill="#1C1307" transform="translate(368,577)"/>
<path d="M0 0 C0.66 0 1.32 0 2 0 C2.06058594 1.05960938 2.12117188 2.11921875 2.18359375 3.2109375 C2.26800127 4.59897221 2.35264917 5.98699232 2.4375 7.375 C2.47681641 8.07367187 2.51613281 8.77234375 2.55664062 9.4921875 C2.74280134 13.37360492 2.74280134 13.37360492 4 17 C3.01 17 2.02 17 1 17 C0.67 17.99 0.34 18.98 0 20 C-0.06058594 19.30132813 -0.12117188 18.60265625 -0.18359375 17.8828125 C-0.26738281 16.97273437 -0.35117187 16.06265625 -0.4375 15.125 C-0.51871094 14.22007812 -0.59992188 13.31515625 -0.68359375 12.3828125 C-0.86989285 9.98889139 -0.86989285 9.98889139 -2 8 C-2.1875 5 -2.1875 5 -2 2 C-1.34 1.34 -0.68 0.68 0 0 Z " fill="#31260C" transform="translate(308,616)"/>
<path d="M0 0 C0 0.99 0 1.98 0 3 C0.66 3 1.32 3 2 3 C1.67 3.66 1.34 4.32 1 5 C0.443125 4.79375 -0.11375 4.5875 -0.6875 4.375 C-3.67238361 3.89096482 -5.26544852 4.80801602 -8 6 C-8.99 6 -9.98 6 -11 6 C-10.8125 3.625 -10.8125 3.625 -10 1 C-6.41025704 -1.19373181 -3.97935131 -1.13695752 0 0 Z " fill="#32260B" transform="translate(341,578)"/>
<path d="M0 0 C0.33 0 0.66 0 1 0 C0.5464821 7.02952752 -1.12059087 12.5849443 -4 19 C-4.12375 18.360625 -4.2475 17.72125 -4.375 17.0625 C-4.58125 16.381875 -4.7875 15.70125 -5 15 C-5.66 14.67 -6.32 14.34 -7 14 C-6.40917986 12.51545194 -5.80187345 11.03745649 -5.1875 9.5625 C-4.85105469 8.73878906 -4.51460938 7.91507813 -4.16796875 7.06640625 C-3 5 -3 5 0 4 C0 2.68 0 1.36 0 0 Z " fill="#DFC82E" transform="translate(405,631)"/>
<path d="M0 0 C3 3.625 3 3.625 3 7 C3.66 7 4.32 7 5 7 C5.33 6.01 5.66 5.02 6 4 C6.28875 5.216875 6.5775 6.43375 6.875 7.6875 C7.67835792 10.91814648 8.66265409 13.94320935 10 17 C8.68 17.33 7.36 17.66 6 18 C4.9936345 15.56495491 3.99473587 13.12729136 3 10.6875 C2.71382813 9.99720703 2.42765625 9.30691406 2.1328125 8.59570312 C0.91089256 5.58454326 0 3.28113016 0 0 Z " fill="#DDC332" transform="translate(303,632)"/>
<path d="M0 0 C1.60379341 -0.05416188 3.20811406 -0.09286638 4.8125 -0.125 C5.70582031 -0.14820313 6.59914063 -0.17140625 7.51953125 -0.1953125 C10.966001 0.07606307 12.60656148 1.60656148 15 4 C8.86090397 5.43680971 4.79622721 4.32637691 -1 2 C-0.67 1.34 -0.34 0.68 0 0 Z " fill="#F0D925" transform="translate(355,571)"/>
<path d="M0 0 C0.33 0 0.66 0 1 0 C1.06058594 0.91523437 1.12117188 1.83046875 1.18359375 2.7734375 C1.26738281 3.96195313 1.35117187 5.15046875 1.4375 6.375 C1.51871094 7.55835938 1.59992188 8.74171875 1.68359375 9.9609375 C1.81084936 12.91518901 1.81084936 12.91518901 3 15 C2.40832031 14.98839844 1.81664062 14.97679687 1.20703125 14.96484375 C-3.00231785 14.91677614 -6.8922333 14.93993117 -11 16 C-11 15.34 -11 14.68 -11 14 C-7.7 13.34 -4.4 12.68 -1 12 C-1.01160156 11.21753906 -1.02320313 10.43507813 -1.03515625 9.62890625 C-1.04417969 8.61699219 -1.05320312 7.60507812 -1.0625 6.5625 C-1.07410156 5.55316406 -1.08570313 4.54382813 -1.09765625 3.50390625 C-1 1 -1 1 0 0 Z " fill="#C7B437" transform="translate(361,588)"/>
<path d="M0 0 C0 0.33 0 0.66 0 1 C-1.98 1.33 -3.96 1.66 -6 2 C-6 2.66 -6 3.32 -6 4 C-7.43739513 4.02712066 -8.87493863 4.04645067 -10.3125 4.0625 C-11.51326172 4.07990234 -11.51326172 4.07990234 -12.73828125 4.09765625 C-15 4 -15 4 -18 3 C-19.33106622 2.65772583 -20.66400079 2.32248257 -22 2 C-14.56340812 -0.01670288 -7.68395543 -0.2137731 0 0 Z " fill="#C7B730" transform="translate(361,570)"/>
<path d="M0 0 C0.33 0 0.66 0 1 0 C0.835 1.11375 0.67 2.2275 0.5 3.375 C-0.05462787 8.33495777 -0.11294724 13.26518125 -0.125 18.25 C-0.12951172 19.03036621 -0.13402344 19.81073242 -0.13867188 20.61474609 C-0.12855855 24.54292969 0.03348254 28.16461326 1 32 C0.34 32 -0.32 32 -1 32 C-1 31.34 -1 30.68 -1 30 C-1.66 30 -2.32 30 -3 30 C-2.85991329 26.4789137 -2.71189018 22.95820288 -2.5625 19.4375 C-2.52318359 18.44685547 -2.48386719 17.45621094 -2.44335938 16.43554688 C-1.81176758 1.81176758 -1.81176758 1.81176758 0 0 Z " fill="#E6CD44" transform="translate(597,605)"/>
<path d="M0 0 C0.33 0.99 0.66 1.98 1 3 C2.07507813 3.17789063 2.07507813 3.17789063 3.171875 3.359375 C6.10116795 4.0229165 8.5376025 4.9668898 11.25 6.25 C12.12140625 6.64703125 12.9928125 7.0440625 13.890625 7.453125 C16 9 16 9 16.796875 11.671875 C16.89742188 12.82429687 16.89742188 12.82429687 17 14 C16.34 14 15.68 14 15 14 C15 12.68 15 11.36 15 10 C14.236875 9.7525 13.47375 9.505 12.6875 9.25 C7.76206342 7.58036048 2.88283322 5.78979296 -2 4 C-2 3.34 -2 2.68 -2 2 C-1.34 2 -0.68 2 0 2 C0 1.34 0 0.68 0 0 Z " fill="#BAA739" transform="translate(327,655)"/>
<path d="M0 0 C6.1105424 -0.11269443 11.95170514 0.10395632 18 1 C16 3 16 3 13.3203125 3.265625 C12.26585937 3.26046875 11.21140625 3.2553125 10.125 3.25 C8.55105469 3.25773438 8.55105469 3.25773438 6.9453125 3.265625 C4.08400889 3.0075764 2.42723091 2.4774449 0 1 C0 0.67 0 0.34 0 0 Z " fill="#E6D13A" transform="translate(339,673)"/>
<path d="M0 0 C0.66 0 1.32 0 2 0 C2.53394179 1.4117783 3.05165104 2.82970244 3.5625 4.25 C3.85253906 5.03890625 4.14257812 5.8278125 4.44140625 6.640625 C5.04522837 9.19103452 4.8473932 10.55322229 4 13 C3.67 12.01 3.34 11.02 3 10 C2.34 11.32 1.68 12.64 1 14 C0.63906896 11.85529407 0.28642411 9.70919203 -0.0625 7.5625 C-0.25972656 6.36753906 -0.45695312 5.17257812 -0.66015625 3.94140625 C-0.77230469 2.97074219 -0.88445312 2.00007812 -1 1 C-0.67 0.67 -0.34 0.34 0 0 Z " fill="#DEC836" transform="translate(401,600)"/>
<path d="M0 0 C1.36125 0.37125 1.36125 0.37125 2.75 0.75 C2.75 1.08 2.75 1.41 2.75 1.75 C1.904375 1.935625 1.05875 2.12125 0.1875 2.3125 C-3.82079179 3.98869475 -5.85786379 6.11453437 -8.734375 9.2890625 C-10.25 10.75 -10.25 10.75 -12.25 10.75 C-12.58 9.76 -12.91 8.77 -13.25 7.75 C-11.88875 6.88375 -11.88875 6.88375 -10.5 6 C-7.26199955 3.95824816 -7.26199955 3.95824816 -5.25 1.4375 C-3.25 -0.25 -3.25 -0.25 0 0 Z " fill="#DCC638" transform="translate(322.25,603.25)"/>
<path d="M0 0 C-1.5830577 4.2742558 -4.50568404 6.26531794 -8 9 C-8 8.34 -8 7.68 -8 7 C-8.66 6.67 -9.32 6.34 -10 6 C-9.09650406 4.98808455 -8.17659153 3.99081074 -7.25 3 C-6.48429687 2.1646875 -6.48429687 2.1646875 -5.703125 1.3125 C-4 0 -4 0 0 0 Z " fill="#EBDB37" transform="translate(394,658)"/>
<path d="M0 0 C1.44246094 -0.02126953 1.44246094 -0.02126953 2.9140625 -0.04296875 C5.375 0.1875 5.375 0.1875 7.375 2.1875 C1.30803301 2.95790851 -4.51014973 3.28456112 -10.625 3.1875 C-9.625 1.1875 -9.625 1.1875 -7.9140625 0.57421875 C-5.24711172 0.12365881 -2.70483514 0.01822665 0 0 Z " fill="#B99D1A" transform="translate(355.625,660.8125)"/>
<path d="M0 0 C0.33 0 0.66 0 1 0 C1.04898437 0.845625 1.09796875 1.69125 1.1484375 2.5625 C1.61124106 10.14380954 1.61124106 10.14380954 3.125 17.5625 C3.97402011 20.89793613 3.96641314 21.88978306 3 25 C0.09229046 19.31432124 -0.3864851 14.89430777 -0.1875 8.5625 C-0.17396484 7.73556641 -0.16042969 6.90863281 -0.14648438 6.05664062 C-0.11146992 4.0374736 -0.05767562 2.01864682 0 0 Z " fill="#F4DD34" transform="translate(303,614)"/>
<path d="M0 0 C0.43892578 0.88171875 0.43892578 0.88171875 0.88671875 1.78125 C3.70627741 7.40058094 5.74840919 11.35306194 11 15 C7.0308743 14.64978303 4.1848477 13.29821194 1.16015625 10.67578125 C-1.06611499 7.46005612 -0.43902675 3.73172739 0 0 Z " fill="#CFBA37" transform="translate(310,622)"/>
<path d="M0 0 C4.26429585 6.39644377 4.27018742 12.53982506 4 20 C3.67 20 3.34 20 3 20 C3 17.69 3 15.38 3 13 C2.34 13 1.68 13 1 13 C0.34 11.68 -0.32 10.36 -1 9 C-0.34 9 0.32 9 1 9 C0.67 6.03 0.34 3.06 0 0 Z " fill="#443712" transform="translate(400,606)"/>
<path d="M0 0 C0.66 0.33 1.32 0.66 2 1 C2 3.64 2 6.28 2 9 C1.01 9.33 0.02 9.66 -1 10 C-1 9.01 -1 8.02 -1 7 C-1.99 6.67 -2.98 6.34 -4 6 C-2.68 4.02 -1.36 2.04 0 0 Z " fill="#E7CB26" transform="translate(403,626)"/>
<path d="M0 0 C1.125 1.625 1.125 1.625 2 4 C1.125 7.25 1.125 7.25 0 10 C-0.33 10 -0.66 10 -1 10 C-1 7.69 -1 5.38 -1 3 C-4.63 3 -8.26 3 -12 3 C-12 2.67 -12 2.34 -12 2 C-11.21753906 1.93941406 -10.43507813 1.87882813 -9.62890625 1.81640625 C-8.61699219 1.73261719 -7.60507812 1.64882813 -6.5625 1.5625 C-5.55316406 1.48128906 -4.54382813 1.40007813 -3.50390625 1.31640625 C-1.06359221 1.26788532 -1.06359221 1.26788532 0 0 Z " fill="#C0B039" transform="translate(363,637)"/>
<path d="M0 0 C0.33 0.99 0.66 1.98 1 3 C0.67 3.66 0.34 4.32 0 5 C-2.31 4.67 -4.62 4.34 -7 4 C-7.33 3.01 -7.66 2.02 -8 1 C-6.865625 1.020625 -5.73125 1.04125 -4.5625 1.0625 C-1.18424326 1.41577477 -1.18424326 1.41577477 0 0 Z " fill="#F2DE41" transform="translate(387,584)"/>
<path d="M0 0 C1.875 1.625 1.875 1.625 3 3 C2.17242187 2.75443359 2.17242187 2.75443359 1.328125 2.50390625 C-1.26614007 1.94239586 -3.59835411 1.90260992 -6.25 1.9375 C-7.58804687 1.95103516 -7.58804687 1.95103516 -8.953125 1.96484375 C-9.62859375 1.97644531 -10.3040625 1.98804688 -11 2 C-11 1.34 -11 0.68 -11 0 C-6.67070682 -2.29197874 -4.42383536 -2.01957701 0 0 Z " fill="#BFA82F" transform="translate(344,583)"/>
<path d="M0 0 C0.66 0.66 1.32 1.32 2 2 C0.35 3.98 -1.3 5.96 -3 8 C-3.66 7.67 -4.32 7.34 -5 7 C-5 6.34 -5 5.68 -5 5 C-5.66 4.34 -6.32 3.68 -7 3 C-5.5459375 2.814375 -5.5459375 2.814375 -4.0625 2.625 C-2.5465625 2.315625 -2.5465625 2.315625 -1 2 C-0.67 1.34 -0.34 0.68 0 0 Z " fill="#281C0B" transform="translate(390,654)"/>
<path d="M0 0 C0.66 0 1.32 0 2 0 C2.125 5.75 2.125 5.75 1 8 C0.01 8 -0.98 8 -2 8 C-1.125 1.125 -1.125 1.125 0 0 Z " fill="#E4CF2D" transform="translate(398,646)"/>
<path d="M0 0 C0 1.32 0 2.64 0 4 C-1.175625 4.37125 -1.175625 4.37125 -2.375 4.75 C-5.32317108 6.15389099 -5.9024777 7.00675737 -7 10 C-7 8.35 -7 6.7 -7 5 C-7.66 4.67 -8.32 4.34 -9 4 C-2.25 0 -2.25 0 0 0 Z " fill="#D1BD2F" transform="translate(336,574)"/>
<path d="M0 0 C0.66 0.33 1.32 0.66 2 1 C1.2884375 1.804375 1.2884375 1.804375 0.5625 2.625 C-1.28186076 5.42842836 -1.62456847 7.69620258 -2 11 C-2.66 11 -3.32 11 -4 11 C-4.49230769 4.6 -4.49230769 4.6 -2 1.5625 C-1.34 1.046875 -0.68 0.53125 0 0 Z " fill="#222122" transform="translate(576,745)"/>
<path d="M0 0 C4.75 0.75 4.75 0.75 7 3 C7 3.99 7 4.98 7 6 C7.66 6.33 8.32 6.66 9 7 C6.62051228 6.82374165 5.29774151 6.30280227 3.62109375 4.59765625 C2.37884514 3.09350908 1.18623944 1.54870149 0 0 Z " fill="#EACE25" transform="translate(320,660)"/>
<path d="M0 0 C1.32 0.66 2.64 1.32 4 2 C2.35 4.97 0.7 7.94 -1 11 C-1.66 10.67 -2.32 10.34 -3 10 C-3 9.34 -3 8.68 -3 8 C-2.34 8 -1.68 8 -1 8 C-1.33 6.68 -1.66 5.36 -2 4 C-1.01 4 -0.02 4 1 4 C0.67 2.68 0.34 1.36 0 0 Z " fill="#E0C630" transform="translate(386,636)"/>
<path d="M0 0 C0.33 0 0.66 0 1 0 C0.67 3.3 0.34 6.6 0 10 C0.66 10.33 1.32 10.66 2 11 C0.68 11.33 -0.64 11.66 -2 12 C-1.85904936 10.3745692 -1.71207913 8.74965949 -1.5625 7.125 C-1.48128906 6.22007812 -1.40007812 5.31515625 -1.31640625 4.3828125 C-1 2 -1 2 0 0 Z " fill="#37290D" transform="translate(310,599)"/>
<path d="M0 0 C0.33 0 0.66 0 1 0 C0.88590407 1.45922693 0.75834456 2.91740598 0.625 4.375 C0.55539062 5.18710937 0.48578125 5.99921875 0.4140625 6.8359375 C0 9 0 9 -2 11 C-2 10.01 -2 9.02 -2 8 C-2.66 8 -3.32 8 -4 8 C-3.34 6.68 -2.68 5.36 -2 4 C-1.34 4 -0.68 4 0 4 C0 2.68 0 1.36 0 0 Z " fill="#D0B831" transform="translate(405,631)"/>
<path d="M0 0 C0.33 0 0.66 0 1 0 C1.144375 1.11375 1.28875 2.2275 1.4375 3.375 C1.78372035 6.82142047 1.78372035 6.82142047 3 9 C2.01 9 1.02 9 0 9 C-0.33 9.99 -0.66 10.98 -1 12 C-1.02698189 10.37509046 -1.04638757 8.75005367 -1.0625 7.125 C-1.07410156 6.22007812 -1.08570313 5.31515625 -1.09765625 4.3828125 C-1 2 -1 2 0 0 Z " fill="#251D0A" transform="translate(309,624)"/>
<path d="M0 0 C1.00000429 4.00001715 0.80688405 6.05523353 0 10 C1.32 10.33 2.64 10.66 4 11 C2.02 11.66 0.04 12.32 -2 13 C-1.34 8.71 -0.68 4.42 0 0 Z " fill="#A99935" transform="translate(343,594)"/>
<path d="M0 0 C0 0.66 0 1.32 0 2 C-1.98 2.99 -3.96 3.98 -6 5 C-6.66 4.34 -7.32 3.68 -8 3 C-6.23110084 -0.53779831 -3.70375662 0 0 0 Z " fill="#DDC939" transform="translate(551,501)"/>
<path d="M0 0 C-1.49097658 3.7952131 -3.75700849 5.61042731 -7 8 C-7.66 7.67 -8.32 7.34 -9 7 C-7.88121617 5.82737096 -6.75476949 4.66204862 -5.625 3.5 C-4.68527344 2.52546875 -4.68527344 2.52546875 -3.7265625 1.53125 C-2 0 -2 0 0 0 Z " fill="#E2CB44" transform="translate(482,420)"/>
<path d="M0 0 C0.33 0.99 0.66 1.98 1 3 C0.67 3.66 0.34 4.32 0 5 C-0.22467831 6.53668865 -0.40796805 8.07968054 -0.5625 9.625 C-0.64628906 10.44226563 -0.73007812 11.25953125 -0.81640625 12.1015625 C-0.87699219 12.72804688 -0.93757813 13.35453125 -1 14 C-1.33 14 -1.66 14 -2 14 C-2.24915939 12.23186888 -2.47366632 10.46025018 -2.6875 8.6875 C-2.81511719 7.70136719 -2.94273437 6.71523438 -3.07421875 5.69921875 C-3 3 -3 3 -1.51953125 1.14453125 C-1.01808594 0.76683594 -0.51664062 0.38914062 0 0 Z " fill="#E7D04A" transform="translate(371,312)"/>
<path d="M0 0 C0.33 0 0.66 0 1 0 C1.04898437 0.62648438 1.09796875 1.25296875 1.1484375 1.8984375 C1.22320312 2.71570313 1.29796875 3.53296875 1.375 4.375 C1.44460938 5.18710937 1.51421875 5.99921875 1.5859375 6.8359375 C1.82892588 9.20334191 1.82892588 9.20334191 4 11 C2.02 11.99 2.02 11.99 0 13 C0 8.71 0 4.42 0 0 Z " fill="#2C240C" transform="translate(398,619)"/>
<path d="M0 0 C1.17571451 3.67410785 1.07366746 7.16929183 1 11 C0.01 11.33 -0.98 11.66 -2 12 C-1.85831863 10.56208484 -1.71148957 9.1246763 -1.5625 7.6875 C-1.48128906 6.88699219 -1.40007812 6.08648437 -1.31640625 5.26171875 C-1 3 -1 3 0 0 Z " fill="#D0BD45" transform="translate(300,250)"/>
<path d="M0 0 C-1.98 0.66 -3.96 1.32 -6 2 C-6 3.32 -6 4.64 -6 6 C-8 5 -8 5 -10 2 C-8.71211992 1.46987262 -7.41953322 0.9511671 -6.125 0.4375 C-5.40570313 0.14746094 -4.68640625 -0.14257812 -3.9453125 -0.44140625 C-2 -1 -2 -1 0 0 Z " fill="#AA962B" transform="translate(377,669)"/>
<path d="M0 0 C1.3921875 0.3403125 1.3921875 0.3403125 2.8125 0.6875 C2.8125 1.0175 2.8125 1.3475 2.8125 1.6875 C1.4203125 2.120625 1.4203125 2.120625 0 2.5625 C-3.28541667 3.575 -3.28541667 3.575 -6.1875 5.6875 C-6.1875 2.6875 -6.1875 2.6875 -5.0625 0.9375 C-3.1875 -0.3125 -3.1875 -0.3125 0 0 Z " fill="#BFAF39" transform="translate(322.1875,603.3125)"/>
<path d="M0 0 C-1.32 0.33 -2.64 0.66 -4 1 C-4 1.66 -4 2.32 -4 3 C-6.31 3 -8.62 3 -11 3 C-7.48550811 -0.37391222 -4.73940561 -0.27342725 0 0 Z " fill="#EBD620" transform="translate(350,572)"/>
<path d="M0 0 C1.4606285 2.64738916 2 3.89448334 2 7 C2.66 7 3.32 7 4 7 C4.33 7.99 4.66 8.98 5 10 C4.34 10.66 3.68 11.32 3 12 C-0.42857143 4.71428571 -0.42857143 4.71428571 0 0 Z " fill="#F3DE51" transform="translate(572,638)"/>
<path d="M0 0 C0.99 0.33 1.98 0.66 3 1 C1.35 2.98 -0.3 4.96 -2 7 C-2.66 6.67 -3.32 6.34 -4 6 C-2.84826645 3.53199953 -1.95216435 1.95216435 0 0 Z " fill="#2B2A2B" transform="translate(461,200)"/>
<path d="M0 0 C2.97 0 5.94 0 9 0 C9.33 0.66 9.66 1.32 10 2 C5.94568308 3.15837626 3.78187881 2.83691257 0 1 C0 0.67 0 0.34 0 0 Z " fill="#E6D248" transform="translate(603,676)"/>
<path d="M0 0 C0.66 0.33 1.32 0.66 2 1 C1.34 3.31 0.68 5.62 0 8 C-1 6 -2 4 -3 2 C-2.01 1.34 -1.02 0.68 0 0 Z " fill="#E7CE3C" transform="translate(326,635)"/>
<path d="M0 0 C0.66 0.99 1.32 1.98 2 3 C2.99 3.66 3.98 4.32 5 5 C3.03533587 6.06775224 1.03144641 7.06553465 -1 8 C-1.66 7.67 -2.32 7.34 -3 7 C-2.34 6.34 -1.68 5.68 -1 5 C-0.35232207 2.42938689 -0.35232207 2.42938689 0 0 Z " fill="#B09F38" transform="translate(397,629)"/>
<path d="M0 0 C0.66 0.33 1.32 0.66 2 1 C0.35 2.98 -1.3 4.96 -3 7 C-3.66 6.34 -4.32 5.68 -5 5 C-3.35 3.35 -1.7 1.7 0 0 Z " fill="#221B09" transform="translate(328,586)"/>
<path d="M0 0 C0.66 0.33 1.32 0.66 2 1 C0.35 2.98 -1.3 4.96 -3 7 C-3.66 6.67 -4.32 6.34 -5 6 C-3.35 4.02 -1.7 2.04 0 0 Z " fill="#DDC745" transform="translate(587,580)"/>
</svg>
